<?xml version="1.0" encoding="UTF-8" standalone="no"?>
<!DOCTYPE svg PUBLIC "-//W3C//DTD SVG 1.1//EN"
 "http://www.w3.org/Graphics/SVG/1.1/DTD/svg11.dtd">
<!-- Generated by graphviz version 2.40.1 (20161225.0304)
 -->
<!-- Title: dependencies Pages: 1 -->
<svg width="581pt" height="284pt"
 viewBox="0.00 0.00 581.00 284.00" xmlns="http://www.w3.org/2000/svg" xmlns:xlink="http://www.w3.org/1999/xlink">
<g id="graph0" class="graph" transform="scale(1 1) rotate(0) translate(4 280)">
<title>dependencies</title>
<polygon fill="#ffffff" stroke="transparent" points="-4,4 -4,-280 577,-280 577,4 -4,4"/>
<text text-anchor="start" x="265.5091" y="-42.4" font-family="sans-serif" font-weight="bold" font-size="14.00" fill="#000000">Legend</text>
<polygon fill="#ffffb3" stroke="transparent" points="52.5,-10 52.5,-30 72.5,-30 72.5,-10 52.5,-10"/>
<text text-anchor="start" x="76.129" y="-15.4" font-family="sans-serif" font-size="14.00" fill="#000000"> &#160;Declarations</text>
<polygon fill="#8dd3c7" stroke="transparent" points="165.5,-10 165.5,-30 185.5,-30 185.5,-10 165.5,-10"/>
<text text-anchor="start" x="189.2251" y="-15.4" font-family="sans-serif" font-size="14.00" fill="#000000"> &#160;Module</text>
<polygon fill="#80b1d3" stroke="transparent" points="251.5,-10 251.5,-30 271.5,-30 271.5,-10 251.5,-10"/>
<text text-anchor="start" x="275.2812" y="-15.4" font-family="sans-serif" font-size="14.00" fill="#000000"> &#160;Bootstrap</text>
<polygon fill="#fdb462" stroke="transparent" points="348.5,-10 348.5,-30 368.5,-30 368.5,-10 348.5,-10"/>
<text text-anchor="start" x="372.1732" y="-15.4" font-family="sans-serif" font-size="14.00" fill="#000000"> &#160;Providers</text>
<polygon fill="#fb8072" stroke="transparent" points="444.5,-10 444.5,-30 464.5,-30 464.5,-10 444.5,-10"/>
<text text-anchor="start" x="468.2258" y="-15.4" font-family="sans-serif" font-size="14.00" fill="#000000"> &#160;Exports</text>
<g id="clust1" class="cluster">
<title>cluster_SharedModule</title>
<polygon fill="none" stroke="#000000" stroke-dasharray="1,5" points="8,-70 8,-268 565,-268 565,-70 8,-70"/>
</g>
<g id="clust3" class="cluster">
<title>cluster_SharedModule_imports</title>
<polygon fill="none" stroke="#000000" points="24,-78 24,-130 552,-130 552,-78 24,-78"/>
</g>
<g id="clust4" class="cluster">
<title>cluster_SharedModule_exports</title>
<polygon fill="none" stroke="#000000" points="16,-208 16,-260 557,-260 557,-208 16,-208"/>
</g>
<!-- FormsModule -->
<g id="node1" class="node">
<title>FormsModule</title>
<polygon fill="#8dd3c7" stroke="#000000" points="543.8288,-122 540.8288,-126 519.8288,-126 516.8288,-122 448.1712,-122 448.1712,-86 543.8288,-86 543.8288,-122"/>
<text text-anchor="middle" x="496" y="-99.8" font-family="Times,serif" font-size="14.00" fill="#000000">FormsModule</text>
</g>
<!-- SharedModule -->
<g id="node5" class="node">
<title>SharedModule</title>
<polygon fill="#8dd3c7" stroke="#000000" points="264.4231,-187 261.4231,-191 240.4231,-191 237.4231,-187 165.5769,-187 165.5769,-151 264.4231,-151 264.4231,-187"/>
<text text-anchor="middle" x="215" y="-164.8" font-family="Times,serif" font-size="14.00" fill="#000000">SharedModule</text>
</g>
<!-- FormsModule&#45;&gt;SharedModule -->
<g id="edge1" class="edge">
<title>FormsModule&#45;&gt;SharedModule</title>
<path fill="none" stroke="#000000" d="M512.638,-122.2667C512.638,-140.5552 512.638,-166 512.638,-166 512.638,-166 274.483,-166 274.483,-166"/>
<polygon fill="#000000" stroke="#000000" points="274.483,-162.5001 264.483,-166 274.4829,-169.5001 274.483,-162.5001"/>
</g>
<!-- ReactiveFormsModule -->
<g id="node2" class="node">
<title>ReactiveFormsModule</title>
<polygon fill="#8dd3c7" stroke="#000000" points="430.3047,-122 427.3047,-126 406.3047,-126 403.3047,-122 285.6953,-122 285.6953,-86 430.3047,-86 430.3047,-122"/>
<text text-anchor="middle" x="358" y="-99.8" font-family="Times,serif" font-size="14.00" fill="#000000">ReactiveFormsModule</text>
</g>
<!-- ReactiveFormsModule&#45;&gt;SharedModule -->
<g id="edge2" class="edge">
<title>ReactiveFormsModule&#45;&gt;SharedModule</title>
<path fill="none" stroke="#000000" d="M382.0507,-122.0091C382.0507,-138.0494 382.0507,-159 382.0507,-159 382.0507,-159 274.2172,-159 274.2172,-159"/>
<polygon fill="#000000" stroke="#000000" points="274.2172,-155.5001 264.2172,-159 274.2172,-162.5001 274.2172,-155.5001"/>
</g>
<!-- CommonModule -->
<g id="node3" class="node">
<title>CommonModule</title>
<polygon fill="#8dd3c7" stroke="#000000" points="267.6681,-122 264.6681,-126 243.6681,-126 240.6681,-122 156.3319,-122 156.3319,-86 267.6681,-86 267.6681,-122"/>
<text text-anchor="middle" x="212" y="-99.8" font-family="Times,serif" font-size="14.00" fill="#000000">CommonModule</text>
</g>
<!-- CommonModule&#45;&gt;SharedModule -->
<g id="edge3" class="edge">
<title>CommonModule&#45;&gt;SharedModule</title>
<path fill="none" stroke="#000000" d="M215,-122.1061C215,-122.1061 215,-140.991 215,-140.991"/>
<polygon fill="#000000" stroke="#000000" points="211.5001,-140.9909 215,-150.991 218.5001,-140.991 211.5001,-140.9909"/>
</g>
<!-- MaterialModule -->
<g id="node4" class="node">
<title>MaterialModule</title>
<polygon fill="#8dd3c7" stroke="#000000" points="138.4706,-122 135.4706,-126 114.4706,-126 111.4706,-122 31.5294,-122 31.5294,-86 138.4706,-86 138.4706,-122"/>
<text text-anchor="middle" x="85" y="-99.8" font-family="Times,serif" font-size="14.00" fill="#000000">MaterialModule</text>
</g>
<!-- MaterialModule&#45;&gt;SharedModule -->
<g id="edge4" class="edge">
<title>MaterialModule&#45;&gt;SharedModule</title>
<path fill="none" stroke="#000000" d="M99.9951,-122.0225C99.9951,-139.3734 99.9951,-163 99.9951,-163 99.9951,-163 155.5601,-163 155.5601,-163"/>
<polygon fill="#000000" stroke="#000000" points="155.5602,-166.5001 165.5601,-163 155.5601,-159.5001 155.5602,-166.5001"/>
</g>
<!-- FormsModule  -->
<g id="node6" class="node">
<title>FormsModule </title>
<polygon fill="#fb8072" stroke="#000000" points="549.3283,-252 450.6717,-252 450.6717,-216 549.3283,-216 549.3283,-252"/>
<text text-anchor="middle" x="500" y="-229.8" font-family="Times,serif" font-size="14.00" fill="#000000">FormsModule </text>
</g>
<!-- SharedModule&#45;&gt;FormsModule  -->
<g id="edge5" class="edge">
<title>SharedModule&#45;&gt;FormsModule </title>
<path fill="none" stroke="#000000" stroke-dasharray="5,2" d="M264.2114,-173C341.2474,-173 481.612,-173 481.612,-173 481.612,-173 481.612,-205.698 481.612,-205.698"/>
<polygon fill="#000000" stroke="#000000" points="478.1121,-205.698 481.612,-215.698 485.1121,-205.698 478.1121,-205.698"/>
</g>
<!-- ReactiveFormsModule  -->
<g id="node7" class="node">
<title>ReactiveFormsModule </title>
<polygon fill="#fb8072" stroke="#000000" points="432.8045,-252 285.1955,-252 285.1955,-216 432.8045,-216 432.8045,-252"/>
<text text-anchor="middle" x="359" y="-229.8" font-family="Times,serif" font-size="14.00" fill="#000000">ReactiveFormsModule </text>
</g>
<!-- SharedModule&#45;&gt;ReactiveFormsModule  -->
<g id="edge6" class="edge">
<title>SharedModule&#45;&gt;ReactiveFormsModule </title>
<path fill="none" stroke="#000000" stroke-dasharray="5,2" d="M264.4118,-180C297.093,-180 333.9493,-180 333.9493,-180 333.9493,-180 333.9493,-205.7181 333.9493,-205.7181"/>
<polygon fill="#000000" stroke="#000000" points="330.4494,-205.718 333.9493,-215.7181 337.4494,-205.7181 330.4494,-205.718"/>
</g>
<!-- CommonModule  -->
<g id="node8" class="node">
<title>CommonModule </title>
<polygon fill="#fb8072" stroke="#000000" points="267.6677,-252 152.3323,-252 152.3323,-216 267.6677,-216 267.6677,-252"/>
<text text-anchor="middle" x="210" y="-229.8" font-family="Times,serif" font-size="14.00" fill="#000000">CommonModule </text>
</g>
<!-- SharedModule&#45;&gt;CommonModule  -->
<g id="edge7" class="edge">
<title>SharedModule&#45;&gt;CommonModule </title>
<path fill="none" stroke="#000000" stroke-dasharray="5,2" d="M215,-187.1061C215,-187.1061 215,-205.991 215,-205.991"/>
<polygon fill="#000000" stroke="#000000" points="211.5001,-205.9909 215,-215.991 218.5001,-205.991 211.5001,-205.9909"/>
</g>
<!-- MaterialModule  -->
<g id="node9" class="node">
<title>MaterialModule </title>
<polygon fill="#fb8072" stroke="#000000" points="134.4716,-252 23.5284,-252 23.5284,-216 134.4716,-216 134.4716,-252"/>
<text text-anchor="middle" x="79" y="-229.8" font-family="Times,serif" font-size="14.00" fill="#000000">MaterialModule </text>
</g>
<!-- SharedModule&#45;&gt;MaterialModule  -->
<g id="edge8" class="edge">
<title>SharedModule&#45;&gt;MaterialModule </title>
<path fill="none" stroke="#000000" stroke-dasharray="5,2" d="M165.718,-175C122.2462,-175 65.7549,-175 65.7549,-175 65.7549,-175 65.7549,-205.9775 65.7549,-205.9775"/>
<polygon fill="#000000" stroke="#000000" points="62.255,-205.9774 65.7549,-215.9775 69.255,-205.9775 62.255,-205.9774"/>
</g>
</g>
</svg>
