<?xml version="1.0" encoding="UTF-8" standalone="no"?>
<!DOCTYPE svg PUBLIC "-//W3C//DTD SVG 1.1//EN"
 "http://www.w3.org/Graphics/SVG/1.1/DTD/svg11.dtd">
<!-- Generated by graphviz version 2.40.1 (20161225.0304)
 -->
<!-- Title: dependencies Pages: 1 -->
<svg width="1274pt" height="211pt"
 viewBox="0.00 0.00 1274.00 211.00" xmlns="http://www.w3.org/2000/svg" xmlns:xlink="http://www.w3.org/1999/xlink">
<g id="graph0" class="graph" transform="scale(1 1) rotate(0) translate(4 207)">
<title>dependencies</title>
<polygon fill="#ffffff" stroke="transparent" points="-4,4 -4,-207 1270,-207 1270,4 -4,4"/>
<text text-anchor="start" x="612.0091" y="-42.4" font-family="sans-serif" font-weight="bold" font-size="14.00" fill="#000000">Legend</text>
<polygon fill="#ffffb3" stroke="transparent" points="399,-10 399,-30 419,-30 419,-10 399,-10"/>
<text text-anchor="start" x="422.629" y="-15.4" font-family="sans-serif" font-size="14.00" fill="#000000"> &#160;Declarations</text>
<polygon fill="#8dd3c7" stroke="transparent" points="512,-10 512,-30 532,-30 532,-10 512,-10"/>
<text text-anchor="start" x="535.7251" y="-15.4" font-family="sans-serif" font-size="14.00" fill="#000000"> &#160;Module</text>
<polygon fill="#80b1d3" stroke="transparent" points="598,-10 598,-30 618,-30 618,-10 598,-10"/>
<text text-anchor="start" x="621.7812" y="-15.4" font-family="sans-serif" font-size="14.00" fill="#000000"> &#160;Bootstrap</text>
<polygon fill="#fdb462" stroke="transparent" points="695,-10 695,-30 715,-30 715,-10 695,-10"/>
<text text-anchor="start" x="718.6732" y="-15.4" font-family="sans-serif" font-size="14.00" fill="#000000"> &#160;Providers</text>
<polygon fill="#fb8072" stroke="transparent" points="791,-10 791,-30 811,-30 811,-10 791,-10"/>
<text text-anchor="start" x="814.7258" y="-15.4" font-family="sans-serif" font-size="14.00" fill="#000000"> &#160;Exports</text>
<g id="clust1" class="cluster">
<title>cluster_CategoryModule</title>
<polygon fill="none" stroke="#000000" stroke-dasharray="1,5" points="8,-70 8,-195 1258,-195 1258,-70 8,-70"/>
</g>
<g id="clust2" class="cluster">
<title>cluster_CategoryModule_declarations</title>
<polygon fill="none" stroke="#000000" points="549,-78 549,-130 1250,-130 1250,-78 549,-78"/>
</g>
<g id="clust7" class="cluster">
<title>cluster_CategoryModule_imports</title>
<polygon fill="none" stroke="#000000" points="16,-78 16,-130 541,-130 541,-78 16,-78"/>
</g>
<!-- CategoryListComponent -->
<g id="node1" class="node">
<title>CategoryListComponent</title>
<polygon fill="#ffffb3" stroke="#000000" points="1242.4284,-122 1087.5716,-122 1087.5716,-86 1242.4284,-86 1242.4284,-122"/>
<text text-anchor="middle" x="1165" y="-99.8" font-family="Times,serif" font-size="14.00" fill="#000000">CategoryListComponent</text>
</g>
<!-- CategoryModule -->
<g id="node5" class="node">
<title>CategoryModule</title>
<polygon fill="#8dd3c7" stroke="#000000" points="683.3669,-187 680.3669,-191 659.3669,-191 656.3669,-187 572.6331,-187 572.6331,-151 683.3669,-151 683.3669,-187"/>
<text text-anchor="middle" x="628" y="-164.8" font-family="Times,serif" font-size="14.00" fill="#000000">CategoryModule</text>
</g>
<!-- CategoryListComponent&#45;&gt;CategoryModule -->
<g id="edge1" class="edge">
<title>CategoryListComponent&#45;&gt;CategoryModule</title>
<path fill="none" stroke="#000000" d="M1165,-122.2921C1165,-144.2057 1165,-178 1165,-178 1165,-178 693.4458,-178 693.4458,-178"/>
<polygon fill="#000000" stroke="#000000" points="693.4459,-174.5001 683.4458,-178 693.4458,-181.5001 693.4459,-174.5001"/>
</g>
<!-- CategoryDetailsComponent -->
<g id="node2" class="node">
<title>CategoryDetailsComponent</title>
<polygon fill="#ffffb3" stroke="#000000" points="1070.3019,-122 897.6981,-122 897.6981,-86 1070.3019,-86 1070.3019,-122"/>
<text text-anchor="middle" x="984" y="-99.8" font-family="Times,serif" font-size="14.00" fill="#000000">CategoryDetailsComponent</text>
</g>
<!-- CategoryDetailsComponent&#45;&gt;CategoryModule -->
<g id="edge2" class="edge">
<title>CategoryDetailsComponent&#45;&gt;CategoryModule</title>
<path fill="none" stroke="#000000" d="M984,-122.1061C984,-141.3391 984,-169 984,-169 984,-169 693.625,-169 693.625,-169"/>
<polygon fill="#000000" stroke="#000000" points="693.625,-165.5001 683.625,-169 693.625,-172.5001 693.625,-165.5001"/>
</g>
<!-- CategoryFormComponent -->
<g id="node3" class="node">
<title>CategoryFormComponent</title>
<polygon fill="#ffffb3" stroke="#000000" points="879.4832,-122 716.5168,-122 716.5168,-86 879.4832,-86 879.4832,-122"/>
<text text-anchor="middle" x="798" y="-99.8" font-family="Times,serif" font-size="14.00" fill="#000000">CategoryFormComponent</text>
</g>
<!-- CategoryFormComponent&#45;&gt;CategoryModule -->
<g id="edge3" class="edge">
<title>CategoryFormComponent&#45;&gt;CategoryModule</title>
<path fill="none" stroke="#000000" d="M798,-122.027C798,-138.3976 798,-160 798,-160 798,-160 693.6644,-160 693.6644,-160"/>
<polygon fill="#000000" stroke="#000000" points="693.6644,-156.5001 683.6644,-160 693.6643,-163.5001 693.6644,-156.5001"/>
</g>
<!-- CategoriesComponent -->
<g id="node4" class="node">
<title>CategoriesComponent</title>
<polygon fill="#ffffb3" stroke="#000000" points="698.6993,-122 557.3007,-122 557.3007,-86 698.6993,-86 698.6993,-122"/>
<text text-anchor="middle" x="628" y="-99.8" font-family="Times,serif" font-size="14.00" fill="#000000">CategoriesComponent</text>
</g>
<!-- CategoriesComponent&#45;&gt;CategoryModule -->
<g id="edge4" class="edge">
<title>CategoriesComponent&#45;&gt;CategoryModule</title>
<path fill="none" stroke="#000000" d="M628,-122.1061C628,-122.1061 628,-140.991 628,-140.991"/>
<polygon fill="#000000" stroke="#000000" points="624.5001,-140.9909 628,-150.991 631.5001,-140.991 624.5001,-140.9909"/>
</g>
<!-- SharedModule -->
<g id="node6" class="node">
<title>SharedModule</title>
<polygon fill="#8dd3c7" stroke="#000000" points="533.4231,-122 530.4231,-126 509.4231,-126 506.4231,-122 434.5769,-122 434.5769,-86 533.4231,-86 533.4231,-122"/>
<text text-anchor="middle" x="484" y="-99.8" font-family="Times,serif" font-size="14.00" fill="#000000">SharedModule</text>
</g>
<!-- SharedModule&#45;&gt;CategoryModule -->
<g id="edge5" class="edge">
<title>SharedModule&#45;&gt;CategoryModule</title>
<path fill="none" stroke="#000000" d="M484,-122.027C484,-138.3976 484,-160 484,-160 484,-160 562.3258,-160 562.3258,-160"/>
<polygon fill="#000000" stroke="#000000" points="562.3259,-163.5001 572.3258,-160 562.3258,-156.5001 562.3259,-163.5001"/>
</g>
<!-- RouterModule.forChild(args) -->
<g id="node7" class="node">
<title>RouterModule.forChild(args)</title>
<polygon fill="#8dd3c7" stroke="#000000" points="416.7323,-122 413.7323,-126 392.7323,-126 389.7323,-122 235.2677,-122 235.2677,-86 416.7323,-86 416.7323,-122"/>
<text text-anchor="middle" x="326" y="-99.8" font-family="Times,serif" font-size="14.00" fill="#000000">RouterModule.forChild(args)</text>
</g>
<!-- RouterModule.forChild(args)&#45;&gt;CategoryModule -->
<g id="edge6" class="edge">
<title>RouterModule.forChild(args)&#45;&gt;CategoryModule</title>
<path fill="none" stroke="#000000" d="M326,-122.1061C326,-141.3391 326,-169 326,-169 326,-169 562.6085,-169 562.6085,-169"/>
<polygon fill="#000000" stroke="#000000" points="562.6086,-172.5001 572.6085,-169 562.6085,-165.5001 562.6086,-172.5001"/>
</g>
<!-- EffectsModule.forFeature(args) -->
<g id="node8" class="node">
<title>EffectsModule.forFeature(args)</title>
<polygon fill="#8dd3c7" stroke="#000000" points="217.6282,-122 214.6282,-126 193.6282,-126 190.6282,-122 24.3718,-122 24.3718,-86 217.6282,-86 217.6282,-122"/>
<text text-anchor="middle" x="121" y="-99.8" font-family="Times,serif" font-size="14.00" fill="#000000">EffectsModule.forFeature(args)</text>
</g>
<!-- EffectsModule.forFeature(args)&#45;&gt;CategoryModule -->
<g id="edge7" class="edge">
<title>EffectsModule.forFeature(args)&#45;&gt;CategoryModule</title>
<path fill="none" stroke="#000000" d="M121,-122.2921C121,-144.2057 121,-178 121,-178 121,-178 562.2918,-178 562.2918,-178"/>
<polygon fill="#000000" stroke="#000000" points="562.2919,-181.5001 572.2918,-178 562.2918,-174.5001 562.2919,-181.5001"/>
</g>
</g>
</svg>
