<?xml version="1.0" encoding="UTF-8" standalone="no"?>
<!DOCTYPE svg PUBLIC "-//W3C//DTD SVG 1.1//EN"
 "http://www.w3.org/Graphics/SVG/1.1/DTD/svg11.dtd">
<!-- Generated by graphviz version 2.40.1 (20161225.0304)
 -->
<!-- Title: dependencies Pages: 1 -->
<svg width="1063pt" height="211pt"
 viewBox="0.00 0.00 1063.00 211.00" xmlns="http://www.w3.org/2000/svg" xmlns:xlink="http://www.w3.org/1999/xlink">
<g id="graph0" class="graph" transform="scale(1 1) rotate(0) translate(4 207)">
<title>dependencies</title>
<polygon fill="#ffffff" stroke="transparent" points="-4,4 -4,-207 1059,-207 1059,4 -4,4"/>
<text text-anchor="start" x="506.5091" y="-42.4" font-family="sans-serif" font-weight="bold" font-size="14.00" fill="#000000">Legend</text>
<polygon fill="#ffffb3" stroke="transparent" points="293.5,-10 293.5,-30 313.5,-30 313.5,-10 293.5,-10"/>
<text text-anchor="start" x="317.129" y="-15.4" font-family="sans-serif" font-size="14.00" fill="#000000"> &#160;Declarations</text>
<polygon fill="#8dd3c7" stroke="transparent" points="406.5,-10 406.5,-30 426.5,-30 426.5,-10 406.5,-10"/>
<text text-anchor="start" x="430.2251" y="-15.4" font-family="sans-serif" font-size="14.00" fill="#000000"> &#160;Module</text>
<polygon fill="#80b1d3" stroke="transparent" points="492.5,-10 492.5,-30 512.5,-30 512.5,-10 492.5,-10"/>
<text text-anchor="start" x="516.2812" y="-15.4" font-family="sans-serif" font-size="14.00" fill="#000000"> &#160;Bootstrap</text>
<polygon fill="#fdb462" stroke="transparent" points="589.5,-10 589.5,-30 609.5,-30 609.5,-10 589.5,-10"/>
<text text-anchor="start" x="613.1732" y="-15.4" font-family="sans-serif" font-size="14.00" fill="#000000"> &#160;Providers</text>
<polygon fill="#fb8072" stroke="transparent" points="685.5,-10 685.5,-30 705.5,-30 705.5,-10 685.5,-10"/>
<text text-anchor="start" x="709.2258" y="-15.4" font-family="sans-serif" font-size="14.00" fill="#000000"> &#160;Exports</text>
<g id="clust1" class="cluster">
<title>cluster_CategoryModule</title>
<polygon fill="none" stroke="#000000" stroke-dasharray="1,5" points="8,-70 8,-195 1047,-195 1047,-70 8,-70"/>
</g>
<g id="clust2" class="cluster">
<title>cluster_CategoryModule_declarations</title>
<polygon fill="none" stroke="#000000" points="338,-78 338,-130 1039,-130 1039,-78 338,-78"/>
</g>
<g id="clust7" class="cluster">
<title>cluster_CategoryModule_imports</title>
<polygon fill="none" stroke="#000000" points="16,-78 16,-130 330,-130 330,-78 16,-78"/>
</g>
<!-- CategoryListComponent -->
<g id="node1" class="node">
<title>CategoryListComponent</title>
<polygon fill="#ffffb3" stroke="#000000" points="1031.4284,-122 876.5716,-122 876.5716,-86 1031.4284,-86 1031.4284,-122"/>
<text text-anchor="middle" x="954" y="-99.8" font-family="Times,serif" font-size="14.00" fill="#000000">CategoryListComponent</text>
</g>
<!-- CategoryModule -->
<g id="node5" class="node">
<title>CategoryModule</title>
<polygon fill="#8dd3c7" stroke="#000000" points="557.3669,-187 554.3669,-191 533.3669,-191 530.3669,-187 446.6331,-187 446.6331,-151 557.3669,-151 557.3669,-187"/>
<text text-anchor="middle" x="502" y="-164.8" font-family="Times,serif" font-size="14.00" fill="#000000">CategoryModule</text>
</g>
<!-- CategoryListComponent&#45;&gt;CategoryModule -->
<g id="edge1" class="edge">
<title>CategoryListComponent&#45;&gt;CategoryModule</title>
<path fill="none" stroke="#000000" d="M954,-122.2843C954,-143.3211 954,-175 954,-175 954,-175 567.4241,-175 567.4241,-175"/>
<polygon fill="#000000" stroke="#000000" points="567.4241,-171.5001 557.4241,-175 567.424,-178.5001 567.4241,-171.5001"/>
</g>
<!-- CategoryDetailsComponent -->
<g id="node2" class="node">
<title>CategoryDetailsComponent</title>
<polygon fill="#ffffb3" stroke="#000000" points="859.3019,-122 686.6981,-122 686.6981,-86 859.3019,-86 859.3019,-122"/>
<text text-anchor="middle" x="773" y="-99.8" font-family="Times,serif" font-size="14.00" fill="#000000">CategoryDetailsComponent</text>
</g>
<!-- CategoryDetailsComponent&#45;&gt;CategoryModule -->
<g id="edge2" class="edge">
<title>CategoryDetailsComponent&#45;&gt;CategoryModule</title>
<path fill="none" stroke="#000000" d="M773,-122.0225C773,-139.3734 773,-163 773,-163 773,-163 567.4948,-163 567.4948,-163"/>
<polygon fill="#000000" stroke="#000000" points="567.4949,-159.5001 557.4948,-163 567.4948,-166.5001 567.4949,-159.5001"/>
</g>
<!-- CategoryFormComponent -->
<g id="node3" class="node">
<title>CategoryFormComponent</title>
<polygon fill="#ffffb3" stroke="#000000" points="668.4832,-122 505.5168,-122 505.5168,-86 668.4832,-86 668.4832,-122"/>
<text text-anchor="middle" x="587" y="-99.8" font-family="Times,serif" font-size="14.00" fill="#000000">CategoryFormComponent</text>
</g>
<!-- CategoryFormComponent&#45;&gt;CategoryModule -->
<g id="edge3" class="edge">
<title>CategoryFormComponent&#45;&gt;CategoryModule</title>
<path fill="none" stroke="#000000" d="M531.4709,-122.1061C531.4709,-122.1061 531.4709,-140.991 531.4709,-140.991"/>
<polygon fill="#000000" stroke="#000000" points="527.971,-140.9909 531.4709,-150.991 534.971,-140.991 527.971,-140.9909"/>
</g>
<!-- CategoriesComponent -->
<g id="node4" class="node">
<title>CategoriesComponent</title>
<polygon fill="#ffffb3" stroke="#000000" points="487.6993,-122 346.3007,-122 346.3007,-86 487.6993,-86 487.6993,-122"/>
<text text-anchor="middle" x="417" y="-99.8" font-family="Times,serif" font-size="14.00" fill="#000000">CategoriesComponent</text>
</g>
<!-- CategoriesComponent&#45;&gt;CategoryModule -->
<g id="edge4" class="edge">
<title>CategoriesComponent&#45;&gt;CategoryModule</title>
<path fill="none" stroke="#000000" d="M467.0831,-122.1061C467.0831,-122.1061 467.0831,-140.991 467.0831,-140.991"/>
<polygon fill="#000000" stroke="#000000" points="463.5832,-140.9909 467.0831,-150.991 470.5832,-140.991 463.5832,-140.9909"/>
</g>
<!-- SharedModule -->
<g id="node6" class="node">
<title>SharedModule</title>
<polygon fill="#8dd3c7" stroke="#000000" points="322.4231,-122 319.4231,-126 298.4231,-126 295.4231,-122 223.5769,-122 223.5769,-86 322.4231,-86 322.4231,-122"/>
<text text-anchor="middle" x="273" y="-99.8" font-family="Times,serif" font-size="14.00" fill="#000000">SharedModule</text>
</g>
<!-- SharedModule&#45;&gt;CategoryModule -->
<g id="edge5" class="edge">
<title>SharedModule&#45;&gt;CategoryModule</title>
<path fill="none" stroke="#000000" d="M273,-122.0225C273,-139.3734 273,-163 273,-163 273,-163 436.5655,-163 436.5655,-163"/>
<polygon fill="#000000" stroke="#000000" points="436.5655,-166.5001 446.5655,-163 436.5655,-159.5001 436.5655,-166.5001"/>
</g>
<!-- RouterModule.forChild(args) -->
<g id="node7" class="node">
<title>RouterModule.forChild(args)</title>
<polygon fill="#8dd3c7" stroke="#000000" points="205.7323,-122 202.7323,-126 181.7323,-126 178.7323,-122 24.2677,-122 24.2677,-86 205.7323,-86 205.7323,-122"/>
<text text-anchor="middle" x="115" y="-99.8" font-family="Times,serif" font-size="14.00" fill="#000000">RouterModule.forChild(args)</text>
</g>
<!-- RouterModule.forChild(args)&#45;&gt;CategoryModule -->
<g id="edge6" class="edge">
<title>RouterModule.forChild(args)&#45;&gt;CategoryModule</title>
<path fill="none" stroke="#000000" d="M115,-122.2843C115,-143.3211 115,-175 115,-175 115,-175 436.5523,-175 436.5523,-175"/>
<polygon fill="#000000" stroke="#000000" points="436.5524,-178.5001 446.5523,-175 436.5523,-171.5001 436.5524,-178.5001"/>
</g>
</g>
</svg>
