<?xml version="1.0" encoding="UTF-8" standalone="no"?>
<!DOCTYPE svg PUBLIC "-//W3C//DTD SVG 1.1//EN"
 "http://www.w3.org/Graphics/SVG/1.1/DTD/svg11.dtd">
<!-- Generated by graphviz version 2.40.1 (20161225.0304)
 -->
<!-- Title: dependencies Pages: 1 -->
<svg width="2917pt" height="374pt"
 viewBox="0.00 0.00 2917.00 374.00" xmlns="http://www.w3.org/2000/svg" xmlns:xlink="http://www.w3.org/1999/xlink">
<g id="graph0" class="graph" transform="scale(1 1) rotate(0) translate(4 370)">
<title>dependencies</title>
<polygon fill="#ffffff" stroke="transparent" points="-4,4 -4,-370 2913,-370 2913,4 -4,4"/>
<text text-anchor="start" x="1433.5091" y="-42.4" font-family="sans-serif" font-weight="bold" font-size="14.00" fill="#000000">Legend</text>
<polygon fill="#ffffb3" stroke="transparent" points="1220.5,-10 1220.5,-30 1240.5,-30 1240.5,-10 1220.5,-10"/>
<text text-anchor="start" x="1244.129" y="-15.4" font-family="sans-serif" font-size="14.00" fill="#000000"> &#160;Declarations</text>
<polygon fill="#8dd3c7" stroke="transparent" points="1333.5,-10 1333.5,-30 1353.5,-30 1353.5,-10 1333.5,-10"/>
<text text-anchor="start" x="1357.2251" y="-15.4" font-family="sans-serif" font-size="14.00" fill="#000000"> &#160;Module</text>
<polygon fill="#80b1d3" stroke="transparent" points="1419.5,-10 1419.5,-30 1439.5,-30 1439.5,-10 1419.5,-10"/>
<text text-anchor="start" x="1443.2812" y="-15.4" font-family="sans-serif" font-size="14.00" fill="#000000"> &#160;Bootstrap</text>
<polygon fill="#fdb462" stroke="transparent" points="1516.5,-10 1516.5,-30 1536.5,-30 1536.5,-10 1516.5,-10"/>
<text text-anchor="start" x="1540.1732" y="-15.4" font-family="sans-serif" font-size="14.00" fill="#000000"> &#160;Providers</text>
<polygon fill="#fb8072" stroke="transparent" points="1612.5,-10 1612.5,-30 1632.5,-30 1632.5,-10 1612.5,-10"/>
<text text-anchor="start" x="1636.2258" y="-15.4" font-family="sans-serif" font-size="14.00" fill="#000000"> &#160;Exports</text>
<g id="clust1" class="cluster">
<title>cluster_AppModule</title>
<polygon fill="none" stroke="#000000" stroke-dasharray="1,5" points="441,-70 441,-358 1799,-358 1799,-70 441,-70"/>
</g>
<g id="clust3" class="cluster">
<title>cluster_AppModule_imports</title>
<polygon fill="none" stroke="#000000" points="449,-78 449,-206 1791,-206 1791,-78 449,-78"/>
</g>
<g id="clust5" class="cluster">
<title>cluster_AppModule_bootstrap</title>
<polygon fill="none" stroke="#000000" points="1136,-298 1136,-350 1260,-350 1260,-298 1136,-298"/>
</g>
<g id="clust7" class="cluster">
<title>cluster_CategoryModule</title>
<polygon fill="none" stroke="#000000" stroke-dasharray="1,5" points="8,-70 8,-138 433,-138 433,-70 8,-70"/>
</g>
<g id="clust9" class="cluster">
<title>cluster_CategoryModule_imports</title>
<polygon fill="none" stroke="#000000" points="16,-78 16,-130 425,-130 425,-78 16,-78"/>
</g>
<g id="clust13" class="cluster">
<title>cluster_CoreModule</title>
<polygon fill="none" stroke="#000000" stroke-dasharray="1,5" points="1807,-222 1807,-290 2087,-290 2087,-222 1807,-222"/>
</g>
<g id="clust15" class="cluster">
<title>cluster_CoreModule_imports</title>
<polygon fill="none" stroke="#000000" points="1965,-230 1965,-282 2079,-282 2079,-230 1965,-230"/>
</g>
<g id="clust16" class="cluster">
<title>cluster_CoreModule_exports</title>
<polygon fill="none" stroke="#000000" points="1815,-230 1815,-282 1957,-282 1957,-230 1815,-230"/>
</g>
<g id="clust25" class="cluster">
<title>cluster_SharedModule</title>
<polygon fill="none" stroke="#000000" stroke-dasharray="1,5" points="1807,-146 1807,-214 2901,-214 2901,-146 1807,-146"/>
</g>
<g id="clust27" class="cluster">
<title>cluster_SharedModule_imports</title>
<polygon fill="none" stroke="#000000" points="2365,-154 2365,-206 2893,-206 2893,-154 2365,-154"/>
</g>
<g id="clust28" class="cluster">
<title>cluster_SharedModule_exports</title>
<polygon fill="none" stroke="#000000" points="1815,-154 1815,-206 2357,-206 2357,-154 1815,-154"/>
</g>
<!-- BrowserModule -->
<g id="node1" class="node">
<title>BrowserModule</title>
<polygon fill="#8dd3c7" stroke="#000000" points="1666.4734,-122 1663.4734,-126 1642.4734,-126 1639.4734,-122 1559.5266,-122 1559.5266,-86 1666.4734,-86 1666.4734,-122"/>
<text text-anchor="middle" x="1613" y="-99.8" font-family="Times,serif" font-size="14.00" fill="#000000">BrowserModule</text>
</g>
<!-- AppModule -->
<g id="node12" class="node">
<title>AppModule</title>
<polygon fill="#8dd3c7" stroke="#000000" points="1239.6571,-274 1236.6571,-278 1215.6571,-278 1212.6571,-274 1156.3429,-274 1156.3429,-238 1239.6571,-238 1239.6571,-274"/>
<text text-anchor="middle" x="1198" y="-251.8" font-family="Times,serif" font-size="14.00" fill="#000000">AppModule</text>
</g>
<!-- BrowserModule&#45;&gt;AppModule -->
<g id="edge1" class="edge">
<title>BrowserModule&#45;&gt;AppModule</title>
<path fill="none" stroke="#000000" d="M1613,-122.2005C1613,-163.3516 1613,-260 1613,-260 1613,-260 1249.6919,-260 1249.6919,-260"/>
<polygon fill="#000000" stroke="#000000" points="1249.6919,-256.5001 1239.6919,-260 1249.6919,-263.5001 1249.6919,-256.5001"/>
</g>
<!-- BrowserAnimationsModule -->
<g id="node2" class="node">
<title>BrowserAnimationsModule</title>
<polygon fill="#8dd3c7" stroke="#000000" points="629.3019,-122 626.3019,-126 605.3019,-126 602.3019,-122 456.6981,-122 456.6981,-86 629.3019,-86 629.3019,-122"/>
<text text-anchor="middle" x="543" y="-99.8" font-family="Times,serif" font-size="14.00" fill="#000000">BrowserAnimationsModule</text>
</g>
<!-- BrowserAnimationsModule&#45;&gt;AppModule -->
<g id="edge2" class="edge">
<title>BrowserAnimationsModule&#45;&gt;AppModule</title>
<path fill="none" stroke="#000000" d="M501.4842,-122.2883C501.4842,-165.2481 501.4842,-269 501.4842,-269 501.4842,-269 1146.2574,-269 1146.2574,-269"/>
<polygon fill="#000000" stroke="#000000" points="1146.2574,-272.5001 1156.2574,-269 1146.2573,-265.5001 1146.2574,-272.5001"/>
</g>
<!-- HttpModule -->
<g id="node3" class="node">
<title>HttpModule</title>
<polygon fill="#8dd3c7" stroke="#000000" points="731.4387,-122 728.4387,-126 707.4387,-126 704.4387,-122 646.5613,-122 646.5613,-86 731.4387,-86 731.4387,-122"/>
<text text-anchor="middle" x="689" y="-99.8" font-family="Times,serif" font-size="14.00" fill="#000000">HttpModule</text>
</g>
<!-- HttpModule&#45;&gt;AppModule -->
<g id="edge3" class="edge">
<title>HttpModule&#45;&gt;AppModule</title>
<path fill="none" stroke="#000000" d="M689,-122.0838C689,-162.9711 689,-259 689,-259 689,-259 1145.9134,-259 1145.9134,-259"/>
<polygon fill="#000000" stroke="#000000" points="1145.9134,-262.5001 1155.9134,-259 1145.9133,-255.5001 1145.9134,-262.5001"/>
</g>
<!-- RouterModule.forRoot(args) -->
<g id="node4" class="node">
<title>RouterModule.forRoot(args)</title>
<polygon fill="#8dd3c7" stroke="#000000" points="926.8419,-122 923.8419,-126 902.8419,-126 899.8419,-122 749.1581,-122 749.1581,-86 926.8419,-86 926.8419,-122"/>
<text text-anchor="middle" x="838" y="-99.8" font-family="Times,serif" font-size="14.00" fill="#000000">RouterModule.forRoot(args)</text>
</g>
<!-- RouterModule.forRoot(args)&#45;&gt;AppModule -->
<g id="edge4" class="edge">
<title>RouterModule.forRoot(args)&#45;&gt;AppModule</title>
<path fill="none" stroke="#000000" d="M791.9479,-122.0935C791.9479,-161.9889 791.9479,-254 791.9479,-254 791.9479,-254 1146.0747,-254 1146.0747,-254"/>
<polygon fill="#000000" stroke="#000000" points="1146.0747,-257.5001 1156.0747,-254 1146.0746,-250.5001 1146.0747,-257.5001"/>
</g>
<!-- StoreModule.forRoot(args) -->
<g id="node5" class="node">
<title>StoreModule.forRoot(args)</title>
<polygon fill="#8dd3c7" stroke="#000000" points="1113.2877,-122 1110.2877,-126 1089.2877,-126 1086.2877,-122 944.7123,-122 944.7123,-86 1113.2877,-86 1113.2877,-122"/>
<text text-anchor="middle" x="1029" y="-99.8" font-family="Times,serif" font-size="14.00" fill="#000000">StoreModule.forRoot(args)</text>
</g>
<!-- StoreModule.forRoot(args)&#45;&gt;AppModule -->
<g id="edge5" class="edge">
<title>StoreModule.forRoot(args)&#45;&gt;AppModule</title>
<path fill="none" stroke="#000000" d="M999.0263,-122.0159C999.0263,-159.8277 999.0263,-244 999.0263,-244 999.0263,-244 1146.2886,-244 1146.2886,-244"/>
<polygon fill="#000000" stroke="#000000" points="1146.2886,-247.5001 1156.2886,-244 1146.2886,-240.5001 1146.2886,-247.5001"/>
</g>
<!-- StoreDevtoolsModule.instrument() -->
<g id="node6" class="node">
<title>StoreDevtoolsModule.instrument()</title>
<polygon fill="#8dd3c7" stroke="#000000" points="1344.3489,-122 1341.3489,-126 1320.3489,-126 1317.3489,-122 1131.6511,-122 1131.6511,-86 1344.3489,-86 1344.3489,-122"/>
<text text-anchor="middle" x="1238" y="-99.8" font-family="Times,serif" font-size="14.00" fill="#000000">StoreDevtoolsModule.instrument()</text>
</g>
<!-- StoreDevtoolsModule.instrument()&#45;&gt;AppModule -->
<g id="edge6" class="edge">
<title>StoreDevtoolsModule.instrument()&#45;&gt;AppModule</title>
<path fill="none" stroke="#000000" d="M1211.9427,-122.0333C1211.9427,-122.0333 1211.9427,-227.9902 1211.9427,-227.9902"/>
<polygon fill="#000000" stroke="#000000" points="1208.4428,-227.9901 1211.9427,-237.9902 1215.4428,-227.9902 1208.4428,-227.9901"/>
</g>
<!-- EffectsModule.forRoot(args) -->
<g id="node7" class="node">
<title>EffectsModule.forRoot(args)</title>
<polygon fill="#8dd3c7" stroke="#000000" points="1541.3774,-122 1538.3774,-126 1517.3774,-126 1514.3774,-122 1362.6226,-122 1362.6226,-86 1541.3774,-86 1541.3774,-122"/>
<text text-anchor="middle" x="1452" y="-99.8" font-family="Times,serif" font-size="14.00" fill="#000000">EffectsModule.forRoot(args)</text>
</g>
<!-- EffectsModule.forRoot(args)&#45;&gt;AppModule -->
<g id="edge7" class="edge">
<title>EffectsModule.forRoot(args)&#45;&gt;AppModule</title>
<path fill="none" stroke="#000000" d="M1452,-122.2703C1452,-162.0576 1452,-253 1452,-253 1452,-253 1249.6585,-253 1249.6585,-253"/>
<polygon fill="#000000" stroke="#000000" points="1249.6585,-249.5001 1239.6585,-253 1249.6585,-256.5001 1249.6585,-249.5001"/>
</g>
<!-- CategoryModule -->
<g id="node8" class="node">
<title>CategoryModule</title>
<polygon fill="#8dd3c7" stroke="#000000" points="945.3669,-198 942.3669,-202 921.3669,-202 918.3669,-198 834.6331,-198 834.6331,-162 945.3669,-162 945.3669,-198"/>
<text text-anchor="middle" x="890" y="-175.8" font-family="Times,serif" font-size="14.00" fill="#000000">CategoryModule</text>
</g>
<!-- CategoryModule&#45;&gt;AppModule -->
<g id="edge8" class="edge">
<title>CategoryModule&#45;&gt;AppModule</title>
<path fill="none" stroke="#000000" d="M890,-198.1289C890,-218.5724 890,-249 890,-249 890,-249 1146.1412,-249 1146.1412,-249"/>
<polygon fill="#000000" stroke="#000000" points="1146.1412,-252.5001 1156.1412,-249 1146.1412,-245.5001 1146.1412,-252.5001"/>
</g>
<!-- CoreModule -->
<g id="node9" class="node">
<title>CoreModule</title>
<polygon fill="#8dd3c7" stroke="#000000" points="1139.2619,-198 1136.2619,-202 1115.2619,-202 1112.2619,-198 1052.7381,-198 1052.7381,-162 1139.2619,-162 1139.2619,-198"/>
<text text-anchor="middle" x="1096" y="-175.8" font-family="Times,serif" font-size="14.00" fill="#000000">CoreModule</text>
</g>
<!-- CoreModule&#45;&gt;AppModule -->
<g id="edge9" class="edge">
<title>CoreModule&#45;&gt;AppModule</title>
<path fill="none" stroke="#000000" d="M1139.5127,-191C1161.6976,-191 1184.0573,-191 1184.0573,-191 1184.0573,-191 1184.0573,-227.8939 1184.0573,-227.8939"/>
<polygon fill="#000000" stroke="#000000" points="1180.5574,-227.8938 1184.0573,-237.8939 1187.5574,-227.8939 1180.5574,-227.8938"/>
</g>
<!-- HeaderComponent  -->
<g id="node17" class="node">
<title>HeaderComponent </title>
<polygon fill="#fb8072" stroke="#000000" points="1948.7436,-274 1823.2564,-274 1823.2564,-238 1948.7436,-238 1948.7436,-274"/>
<text text-anchor="middle" x="1886" y="-251.8" font-family="Times,serif" font-size="14.00" fill="#000000">HeaderComponent </text>
</g>
<!-- CoreModule&#45;&gt;HeaderComponent  -->
<g id="edge18" class="edge">
<title>CoreModule&#45;&gt;HeaderComponent </title>
<path fill="none" stroke="#000000" stroke-dasharray="5,2" d="M1139.4031,-177C1198.852,-177 1298.3219,-177 1298.3219,-177 1298.3219,-177 1298.3219,-246 1298.3219,-246 1298.3219,-246 1813.1081,-246 1813.1081,-246"/>
<polygon fill="#000000" stroke="#000000" points="1813.1082,-249.5001 1823.1081,-246 1813.1081,-242.5001 1813.1082,-249.5001"/>
</g>
<!-- HomeModule -->
<g id="node10" class="node">
<title>HomeModule</title>
<polygon fill="#8dd3c7" stroke="#000000" points="639.7619,-198 636.7619,-202 615.7619,-202 612.7619,-198 546.2381,-198 546.2381,-162 639.7619,-162 639.7619,-198"/>
<text text-anchor="middle" x="593" y="-175.8" font-family="Times,serif" font-size="14.00" fill="#000000">HomeModule</text>
</g>
<!-- HomeModule&#45;&gt;AppModule -->
<g id="edge10" class="edge">
<title>HomeModule&#45;&gt;AppModule</title>
<path fill="none" stroke="#000000" d="M593,-198.2267C593,-222.9318 593,-264 593,-264 593,-264 1145.9379,-264 1145.9379,-264"/>
<polygon fill="#000000" stroke="#000000" points="1145.9379,-267.5001 1155.9379,-264 1145.9379,-260.5001 1145.9379,-267.5001"/>
</g>
<!-- SharedModule -->
<g id="node11" class="node">
<title>SharedModule</title>
<polygon fill="#8dd3c7" stroke="#000000" points="1783.4231,-122 1780.4231,-126 1759.4231,-126 1756.4231,-122 1684.5769,-122 1684.5769,-86 1783.4231,-86 1783.4231,-122"/>
<text text-anchor="middle" x="1734" y="-99.8" font-family="Times,serif" font-size="14.00" fill="#000000">SharedModule</text>
</g>
<!-- SharedModule&#45;&gt;CategoryModule -->
<g id="edge13" class="edge">
<title>SharedModule&#45;&gt;CategoryModule</title>
<path fill="none" stroke="#000000" d="M1717.5963,-122.1944C1717.5963,-130.2782 1717.5963,-138 1717.5963,-138 1717.5963,-138 935.6385,-138 935.6385,-138 935.6385,-138 935.6385,-151.9445 935.6385,-151.9445"/>
<polygon fill="#000000" stroke="#000000" points="932.1386,-151.9444 935.6385,-161.9445 939.1386,-151.9445 932.1386,-151.9444"/>
</g>
<!-- SharedModule&#45;&gt;CoreModule -->
<g id="edge17" class="edge">
<title>SharedModule&#45;&gt;CoreModule</title>
<path fill="none" stroke="#000000" d="M1734,-122.0348C1734,-141.5762 1734,-170 1734,-170 1734,-170 1149.3507,-170 1149.3507,-170"/>
<polygon fill="#000000" stroke="#000000" points="1149.3508,-166.5001 1139.3507,-170 1149.3507,-173.5001 1149.3508,-166.5001"/>
</g>
<!-- SharedModule&#45;&gt;HomeModule -->
<g id="edge19" class="edge">
<title>SharedModule&#45;&gt;HomeModule</title>
<path fill="none" stroke="#000000" d="M1701.1926,-122.0579C1701.1926,-126.4945 1701.1926,-130 1701.1926,-130 1701.1926,-130 634.5158,-130 634.5158,-130 634.5158,-130 634.5158,-151.9489 634.5158,-151.9489"/>
<polygon fill="#000000" stroke="#000000" points="631.0159,-151.9488 634.5158,-161.9489 638.0159,-151.9489 631.0159,-151.9488"/>
</g>
<!-- SharedModule&#45;&gt;AppModule -->
<g id="edge11" class="edge">
<title>SharedModule&#45;&gt;AppModule</title>
<path fill="none" stroke="#000000" d="M1750.4037,-122.0666C1750.4037,-164.5057 1750.4037,-267 1750.4037,-267 1750.4037,-267 1249.9735,-267 1249.9735,-267"/>
<polygon fill="#000000" stroke="#000000" points="1249.9735,-263.5001 1239.9735,-267 1249.9734,-270.5001 1249.9735,-263.5001"/>
</g>
<!-- FormsModule  -->
<g id="node22" class="node">
<title>FormsModule </title>
<polygon fill="#fb8072" stroke="#000000" points="2220.3283,-198 2121.6717,-198 2121.6717,-162 2220.3283,-162 2220.3283,-198"/>
<text text-anchor="middle" x="2171" y="-175.8" font-family="Times,serif" font-size="14.00" fill="#000000">FormsModule </text>
</g>
<!-- SharedModule&#45;&gt;FormsModule  -->
<g id="edge26" class="edge">
<title>SharedModule&#45;&gt;FormsModule </title>
<path fill="none" stroke="#000000" stroke-dasharray="5,2" d="M1783.28,-113C1897.5666,-113 2171,-113 2171,-113 2171,-113 2171,-151.692 2171,-151.692"/>
<polygon fill="#000000" stroke="#000000" points="2167.5001,-151.6919 2171,-161.692 2174.5001,-151.692 2167.5001,-151.6919"/>
</g>
<!-- ReactiveFormsModule  -->
<g id="node23" class="node">
<title>ReactiveFormsModule </title>
<polygon fill="#fb8072" stroke="#000000" points="2103.8045,-198 1956.1955,-198 1956.1955,-162 2103.8045,-162 2103.8045,-198"/>
<text text-anchor="middle" x="2030" y="-175.8" font-family="Times,serif" font-size="14.00" fill="#000000">ReactiveFormsModule </text>
</g>
<!-- SharedModule&#45;&gt;ReactiveFormsModule  -->
<g id="edge27" class="edge">
<title>SharedModule&#45;&gt;ReactiveFormsModule </title>
<path fill="none" stroke="#000000" stroke-dasharray="5,2" d="M1783.5437,-118C1867.8077,-118 2030,-118 2030,-118 2030,-118 2030,-151.7333 2030,-151.7333"/>
<polygon fill="#000000" stroke="#000000" points="2026.5001,-151.7333 2030,-161.7333 2033.5001,-151.7333 2026.5001,-151.7333"/>
</g>
<!-- CommonModule  -->
<g id="node24" class="node">
<title>CommonModule </title>
<polygon fill="#fb8072" stroke="#000000" points="1938.6677,-198 1823.3323,-198 1823.3323,-162 1938.6677,-162 1938.6677,-198"/>
<text text-anchor="middle" x="1881" y="-175.8" font-family="Times,serif" font-size="14.00" fill="#000000">CommonModule </text>
</g>
<!-- SharedModule&#45;&gt;CommonModule  -->
<g id="edge28" class="edge">
<title>SharedModule&#45;&gt;CommonModule </title>
<path fill="none" stroke="#000000" stroke-dasharray="5,2" d="M1766.8074,-122.1532C1766.8074,-145.7566 1766.8074,-184 1766.8074,-184 1766.8074,-184 1813.2346,-184 1813.2346,-184"/>
<polygon fill="#000000" stroke="#000000" points="1813.2347,-187.5001 1823.2346,-184 1813.2346,-180.5001 1813.2347,-187.5001"/>
</g>
<!-- MaterialModule  -->
<g id="node25" class="node">
<title>MaterialModule </title>
<polygon fill="#fb8072" stroke="#000000" points="2349.4716,-198 2238.5284,-198 2238.5284,-162 2349.4716,-162 2349.4716,-198"/>
<text text-anchor="middle" x="2294" y="-175.8" font-family="Times,serif" font-size="14.00" fill="#000000">MaterialModule </text>
</g>
<!-- SharedModule&#45;&gt;MaterialModule  -->
<g id="edge29" class="edge">
<title>SharedModule&#45;&gt;MaterialModule </title>
<path fill="none" stroke="#000000" stroke-dasharray="5,2" d="M1783.6963,-109C1920.7493,-109 2294,-109 2294,-109 2294,-109 2294,-151.7157 2294,-151.7157"/>
<polygon fill="#000000" stroke="#000000" points="2290.5001,-151.7157 2294,-161.7157 2297.5001,-151.7158 2290.5001,-151.7157"/>
</g>
<!-- AppComponent  -->
<g id="node13" class="node">
<title>AppComponent </title>
<polygon fill="#80b1d3" stroke="#000000" points="1252.439,-342 1143.561,-342 1143.561,-306 1252.439,-306 1252.439,-342"/>
<text text-anchor="middle" x="1198" y="-319.8" font-family="Times,serif" font-size="14.00" fill="#000000">AppComponent </text>
</g>
<!-- AppModule&#45;&gt;AppComponent  -->
<g id="edge12" class="edge">
<title>AppModule&#45;&gt;AppComponent </title>
<path fill="none" stroke="#000000" stroke-dasharray="1,5" d="M1198,-274.2228C1198,-274.2228 1198,-295.7269 1198,-295.7269"/>
<polygon fill="#000000" stroke="#000000" points="1194.5001,-295.7269 1198,-305.7269 1201.5001,-295.727 1194.5001,-295.7269"/>
</g>
<!-- RouterModule.forChild(args) -->
<g id="node14" class="node">
<title>RouterModule.forChild(args)</title>
<polygon fill="#8dd3c7" stroke="#000000" points="416.7323,-122 413.7323,-126 392.7323,-126 389.7323,-122 235.2677,-122 235.2677,-86 416.7323,-86 416.7323,-122"/>
<text text-anchor="middle" x="326" y="-99.8" font-family="Times,serif" font-size="14.00" fill="#000000">RouterModule.forChild(args)</text>
</g>
<!-- RouterModule.forChild(args)&#45;&gt;CategoryModule -->
<g id="edge14" class="edge">
<title>RouterModule.forChild(args)&#45;&gt;CategoryModule</title>
<path fill="none" stroke="#000000" d="M295.7946,-122.0555C295.7946,-133.439 295.7946,-146 295.7946,-146 295.7946,-146 895.9694,-146 895.9694,-146 895.9694,-146 895.9694,-151.8056 895.9694,-151.8056"/>
<polygon fill="#000000" stroke="#000000" points="892.4695,-151.8055 895.9694,-161.8056 899.4695,-151.8056 892.4695,-151.8055"/>
</g>
<!-- RouterModule.forChild(args)&#45;&gt;HomeModule -->
<g id="edge20" class="edge">
<title>RouterModule.forChild(args)&#45;&gt;HomeModule</title>
<path fill="none" stroke="#000000" d="M356.2054,-122.0267C356.2054,-142.7672 356.2054,-174 356.2054,-174 356.2054,-174 536.217,-174 536.217,-174"/>
<polygon fill="#000000" stroke="#000000" points="536.217,-177.5001 546.217,-174 536.217,-170.5001 536.217,-177.5001"/>
</g>
<!-- EffectsModule.forFeature(args) -->
<g id="node15" class="node">
<title>EffectsModule.forFeature(args)</title>
<polygon fill="#8dd3c7" stroke="#000000" points="217.6282,-122 214.6282,-126 193.6282,-126 190.6282,-122 24.3718,-122 24.3718,-86 217.6282,-86 217.6282,-122"/>
<text text-anchor="middle" x="121" y="-99.8" font-family="Times,serif" font-size="14.00" fill="#000000">EffectsModule.forFeature(args)</text>
</g>
<!-- EffectsModule.forFeature(args)&#45;&gt;CategoryModule -->
<g id="edge15" class="edge">
<title>EffectsModule.forFeature(args)&#45;&gt;CategoryModule</title>
<path fill="none" stroke="#000000" d="M88.7287,-122.0511C88.7287,-136.373 88.7287,-154 88.7287,-154 88.7287,-154 865.268,-154 865.268,-154 865.268,-154 865.268,-154.7942 865.268,-154.7942"/>
<polygon fill="#000000" stroke="#000000" points="861.7681,-151.9421 865.268,-161.9421 868.7681,-151.9422 861.7681,-151.9421"/>
</g>
<!-- EffectsModule.forFeature(args)&#45;&gt;HomeModule -->
<g id="edge21" class="edge">
<title>EffectsModule.forFeature(args)&#45;&gt;HomeModule</title>
<path fill="none" stroke="#000000" d="M153.2713,-122.1985C153.2713,-146.3563 153.2713,-186 153.2713,-186 153.2713,-186 535.9413,-186 535.9413,-186"/>
<polygon fill="#000000" stroke="#000000" points="535.9414,-189.5001 545.9413,-186 535.9413,-182.5001 535.9414,-189.5001"/>
</g>
<!-- RouterModule -->
<g id="node16" class="node">
<title>RouterModule</title>
<polygon fill="#8dd3c7" stroke="#000000" points="2070.6528,-274 2067.6528,-278 2046.6528,-278 2043.6528,-274 1973.3472,-274 1973.3472,-238 2070.6528,-238 2070.6528,-274"/>
<text text-anchor="middle" x="2022" y="-251.8" font-family="Times,serif" font-size="14.00" fill="#000000">RouterModule</text>
</g>
<!-- RouterModule&#45;&gt;CoreModule -->
<g id="edge16" class="edge">
<title>RouterModule&#45;&gt;CoreModule</title>
<path fill="none" stroke="#000000" d="M2022,-237.8903C2022,-228.103 2022,-218 2022,-218 2022,-218 1096,-218 1096,-218 1096,-218 1096,-208.1097 1096,-208.1097"/>
<polygon fill="#000000" stroke="#000000" points="1099.5001,-208.1096 1096,-198.1097 1092.5001,-208.1097 1099.5001,-208.1096"/>
</g>
<!-- FormsModule -->
<g id="node18" class="node">
<title>FormsModule</title>
<polygon fill="#8dd3c7" stroke="#000000" points="2760.8288,-198 2757.8288,-202 2736.8288,-202 2733.8288,-198 2665.1712,-198 2665.1712,-162 2760.8288,-162 2760.8288,-198"/>
<text text-anchor="middle" x="2713" y="-175.8" font-family="Times,serif" font-size="14.00" fill="#000000">FormsModule</text>
</g>
<!-- FormsModule&#45;&gt;SharedModule -->
<g id="edge22" class="edge">
<title>FormsModule&#45;&gt;SharedModule</title>
<path fill="none" stroke="#000000" d="M2713,-161.9737C2713,-137.0227 2713,-95 2713,-95 2713,-95 1793.2197,-95 1793.2197,-95"/>
<polygon fill="#000000" stroke="#000000" points="1793.2197,-91.5001 1783.2197,-95 1793.2196,-98.5001 1793.2197,-91.5001"/>
</g>
<!-- ReactiveFormsModule -->
<g id="node19" class="node">
<title>ReactiveFormsModule</title>
<polygon fill="#8dd3c7" stroke="#000000" points="2647.3047,-198 2644.3047,-202 2623.3047,-202 2620.3047,-198 2502.6953,-198 2502.6953,-162 2647.3047,-162 2647.3047,-198"/>
<text text-anchor="middle" x="2575" y="-175.8" font-family="Times,serif" font-size="14.00" fill="#000000">ReactiveFormsModule</text>
</g>
<!-- ReactiveFormsModule&#45;&gt;SharedModule -->
<g id="edge23" class="edge">
<title>ReactiveFormsModule&#45;&gt;SharedModule</title>
<path fill="none" stroke="#000000" d="M2575,-161.8468C2575,-138.2434 2575,-100 2575,-100 2575,-100 1793.4686,-100 1793.4686,-100"/>
<polygon fill="#000000" stroke="#000000" points="1793.4687,-96.5001 1783.4686,-100 1793.4686,-103.5001 1793.4687,-96.5001"/>
</g>
<!-- CommonModule -->
<g id="node20" class="node">
<title>CommonModule</title>
<polygon fill="#8dd3c7" stroke="#000000" points="2484.6681,-198 2481.6681,-202 2460.6681,-202 2457.6681,-198 2373.3319,-198 2373.3319,-162 2484.6681,-162 2484.6681,-198"/>
<text text-anchor="middle" x="2429" y="-175.8" font-family="Times,serif" font-size="14.00" fill="#000000">CommonModule</text>
</g>
<!-- CommonModule&#45;&gt;SharedModule -->
<g id="edge24" class="edge">
<title>CommonModule&#45;&gt;SharedModule</title>
<path fill="none" stroke="#000000" d="M2429,-161.9891C2429,-139.5148 2429,-104 2429,-104 2429,-104 1793.4255,-104 1793.4255,-104"/>
<polygon fill="#000000" stroke="#000000" points="1793.4256,-100.5001 1783.4255,-104 1793.4255,-107.5001 1793.4256,-100.5001"/>
</g>
<!-- MaterialModule -->
<g id="node21" class="node">
<title>MaterialModule</title>
<polygon fill="#8dd3c7" stroke="#000000" points="2885.4706,-198 2882.4706,-202 2861.4706,-202 2858.4706,-198 2778.5294,-198 2778.5294,-162 2885.4706,-162 2885.4706,-198"/>
<text text-anchor="middle" x="2832" y="-175.8" font-family="Times,serif" font-size="14.00" fill="#000000">MaterialModule</text>
</g>
<!-- MaterialModule&#45;&gt;SharedModule -->
<g id="edge25" class="edge">
<title>MaterialModule&#45;&gt;SharedModule</title>
<path fill="none" stroke="#000000" d="M2832,-161.9895C2832,-135.9835 2832,-91 2832,-91 2832,-91 1793.3119,-91 1793.3119,-91"/>
<polygon fill="#000000" stroke="#000000" points="1793.3119,-87.5001 1783.3119,-91 1793.3118,-94.5001 1793.3119,-87.5001"/>
</g>
</g>
</svg>
