<?xml version="1.0" encoding="UTF-8" standalone="no"?>
<!DOCTYPE svg PUBLIC "-//W3C//DTD SVG 1.1//EN"
 "http://www.w3.org/Graphics/SVG/1.1/DTD/svg11.dtd">
<!-- Generated by graphviz version 2.40.1 (20161225.0304)
 -->
<!-- Title: dependencies Pages: 1 -->
<svg width="2751pt" height="374pt"
 viewBox="0.00 0.00 2751.00 374.00" xmlns="http://www.w3.org/2000/svg" xmlns:xlink="http://www.w3.org/1999/xlink">
<g id="graph0" class="graph" transform="scale(1 1) rotate(0) translate(4 370)">
<title>dependencies</title>
<polygon fill="#ffffff" stroke="transparent" points="-4,4 -4,-370 2747,-370 2747,4 -4,4"/>
<text text-anchor="start" x="1350.5091" y="-42.4" font-family="sans-serif" font-weight="bold" font-size="14.00" fill="#000000">Legend</text>
<polygon fill="#ffffb3" stroke="transparent" points="1137.5,-10 1137.5,-30 1157.5,-30 1157.5,-10 1137.5,-10"/>
<text text-anchor="start" x="1161.129" y="-15.4" font-family="sans-serif" font-size="14.00" fill="#000000"> &#160;Declarations</text>
<polygon fill="#8dd3c7" stroke="transparent" points="1250.5,-10 1250.5,-30 1270.5,-30 1270.5,-10 1250.5,-10"/>
<text text-anchor="start" x="1274.2251" y="-15.4" font-family="sans-serif" font-size="14.00" fill="#000000"> &#160;Module</text>
<polygon fill="#80b1d3" stroke="transparent" points="1336.5,-10 1336.5,-30 1356.5,-30 1356.5,-10 1336.5,-10"/>
<text text-anchor="start" x="1360.2812" y="-15.4" font-family="sans-serif" font-size="14.00" fill="#000000"> &#160;Bootstrap</text>
<polygon fill="#fdb462" stroke="transparent" points="1433.5,-10 1433.5,-30 1453.5,-30 1453.5,-10 1433.5,-10"/>
<text text-anchor="start" x="1457.1732" y="-15.4" font-family="sans-serif" font-size="14.00" fill="#000000"> &#160;Providers</text>
<polygon fill="#fb8072" stroke="transparent" points="1529.5,-10 1529.5,-30 1549.5,-30 1549.5,-10 1529.5,-10"/>
<text text-anchor="start" x="1553.2258" y="-15.4" font-family="sans-serif" font-size="14.00" fill="#000000"> &#160;Exports</text>
<g id="clust1" class="cluster">
<title>cluster_AppModule</title>
<polygon fill="none" stroke="#000000" stroke-dasharray="1,5" points="941,-70 941,-358 2423,-358 2423,-70 941,-70"/>
</g>
<g id="clust2" class="cluster">
<title>cluster_AppModule_declarations</title>
<polygon fill="none" stroke="#000000" points="2293,-154 2293,-206 2415,-206 2415,-154 2293,-154"/>
</g>
<g id="clust4" class="cluster">
<title>cluster_AppModule_imports</title>
<polygon fill="none" stroke="#000000" points="949,-78 949,-206 2285,-206 2285,-78 949,-78"/>
</g>
<g id="clust6" class="cluster">
<title>cluster_AppModule_bootstrap</title>
<polygon fill="none" stroke="#000000" points="1648,-298 1648,-350 1772,-350 1772,-298 1648,-298"/>
</g>
<g id="clust8" class="cluster">
<title>cluster_CategoryModule</title>
<polygon fill="none" stroke="#000000" stroke-dasharray="1,5" points="8,-70 8,-138 771,-138 771,-70 8,-70"/>
</g>
<g id="clust9" class="cluster">
<title>cluster_CategoryModule_declarations</title>
<polygon fill="none" stroke="#000000" points="16,-78 16,-130 557,-130 557,-78 16,-78"/>
</g>
<g id="clust13" class="cluster">
<title>cluster_CategoryModule_imports</title>
<polygon fill="none" stroke="#000000" points="565,-78 565,-130 763,-130 763,-78 565,-78"/>
</g>
<g id="clust23" class="cluster">
<title>cluster_HomeModule</title>
<polygon fill="none" stroke="#000000" stroke-dasharray="1,5" points="779,-70 779,-138 933,-138 933,-70 779,-70"/>
</g>
<g id="clust24" class="cluster">
<title>cluster_HomeModule_declarations</title>
<polygon fill="none" stroke="#000000" points="787,-78 787,-130 925,-130 925,-78 787,-78"/>
</g>
<g id="clust30" class="cluster">
<title>cluster_LayoutModule</title>
<polygon fill="none" stroke="#000000" stroke-dasharray="1,5" points="2431,-222 2431,-290 2735,-290 2735,-222 2431,-222"/>
</g>
<g id="clust31" class="cluster">
<title>cluster_LayoutModule_declarations</title>
<polygon fill="none" stroke="#000000" points="2589,-230 2589,-282 2727,-282 2727,-230 2589,-230"/>
</g>
<g id="clust34" class="cluster">
<title>cluster_LayoutModule_exports</title>
<polygon fill="none" stroke="#000000" points="2439,-230 2439,-282 2581,-282 2581,-230 2439,-230"/>
</g>
<g id="clust37" class="cluster">
<title>cluster_SharedModule</title>
<polygon fill="none" stroke="#000000" stroke-dasharray="1,5" points="2431,-146 2431,-214 2715,-214 2715,-146 2431,-146"/>
</g>
<g id="clust39" class="cluster">
<title>cluster_SharedModule_imports</title>
<polygon fill="none" stroke="#000000" points="2579,-154 2579,-206 2707,-206 2707,-154 2579,-154"/>
</g>
<g id="clust40" class="cluster">
<title>cluster_SharedModule_exports</title>
<polygon fill="none" stroke="#000000" points="2439,-154 2439,-206 2571,-206 2571,-154 2439,-154"/>
</g>
<!-- AppComponent -->
<g id="node1" class="node">
<title>AppComponent</title>
<polygon fill="#ffffb3" stroke="#000000" points="2406.9399,-198 2301.0601,-198 2301.0601,-162 2406.9399,-162 2406.9399,-198"/>
<text text-anchor="middle" x="2354" y="-175.8" font-family="Times,serif" font-size="14.00" fill="#000000">AppComponent</text>
</g>
<!-- AppModule -->
<g id="node2" class="node">
<title>AppModule</title>
<polygon fill="#8dd3c7" stroke="#000000" points="1751.6571,-274 1748.6571,-278 1727.6571,-278 1724.6571,-274 1668.3429,-274 1668.3429,-238 1751.6571,-238 1751.6571,-274"/>
<text text-anchor="middle" x="1710" y="-251.8" font-family="Times,serif" font-size="14.00" fill="#000000">AppModule</text>
</g>
<!-- AppComponent&#45;&gt;AppModule -->
<g id="edge1" class="edge">
<title>AppComponent&#45;&gt;AppModule</title>
<path fill="none" stroke="#000000" d="M2301.0751,-180C2150.4275,-180 1730.0919,-180 1730.0919,-180 1730.0919,-180 1730.0919,-227.9891 1730.0919,-227.9891"/>
<polygon fill="#000000" stroke="#000000" points="1726.592,-227.989 1730.0919,-237.9891 1733.592,-227.9891 1726.592,-227.989"/>
</g>
<!-- AppComponent  -->
<g id="node15" class="node">
<title>AppComponent </title>
<polygon fill="#80b1d3" stroke="#000000" points="1764.439,-342 1655.561,-342 1655.561,-306 1764.439,-306 1764.439,-342"/>
<text text-anchor="middle" x="1710" y="-319.8" font-family="Times,serif" font-size="14.00" fill="#000000">AppComponent </text>
</g>
<!-- AppModule&#45;&gt;AppComponent  -->
<g id="edge14" class="edge">
<title>AppModule&#45;&gt;AppComponent </title>
<path fill="none" stroke="#000000" stroke-dasharray="1,5" d="M1710,-274.2228C1710,-274.2228 1710,-295.7269 1710,-295.7269"/>
<polygon fill="#000000" stroke="#000000" points="1706.5001,-295.7269 1710,-305.7269 1713.5001,-295.727 1706.5001,-295.7269"/>
</g>
<!-- BrowserModule -->
<g id="node3" class="node">
<title>BrowserModule</title>
<polygon fill="#8dd3c7" stroke="#000000" points="1898.4734,-122 1895.4734,-126 1874.4734,-126 1871.4734,-122 1791.5266,-122 1791.5266,-86 1898.4734,-86 1898.4734,-122"/>
<text text-anchor="middle" x="1845" y="-99.8" font-family="Times,serif" font-size="14.00" fill="#000000">BrowserModule</text>
</g>
<!-- BrowserModule&#45;&gt;AppModule -->
<g id="edge2" class="edge">
<title>BrowserModule&#45;&gt;AppModule</title>
<path fill="none" stroke="#000000" d="M1845,-122.1958C1845,-161.3337 1845,-250 1845,-250 1845,-250 1761.9748,-250 1761.9748,-250"/>
<polygon fill="#000000" stroke="#000000" points="1761.9749,-246.5001 1751.9748,-250 1761.9748,-253.5001 1761.9749,-246.5001"/>
</g>
<!-- HttpModule -->
<g id="node4" class="node">
<title>HttpModule</title>
<polygon fill="#8dd3c7" stroke="#000000" points="2001.4387,-122 1998.4387,-126 1977.4387,-126 1974.4387,-122 1916.5613,-122 1916.5613,-86 2001.4387,-86 2001.4387,-122"/>
<text text-anchor="middle" x="1959" y="-99.8" font-family="Times,serif" font-size="14.00" fill="#000000">HttpModule</text>
</g>
<!-- HttpModule&#45;&gt;AppModule -->
<g id="edge3" class="edge">
<title>HttpModule&#45;&gt;AppModule</title>
<path fill="none" stroke="#000000" d="M1959,-122.0333C1959,-162.2965 1959,-256 1959,-256 1959,-256 1761.677,-256 1761.677,-256"/>
<polygon fill="#000000" stroke="#000000" points="1761.677,-252.5001 1751.677,-256 1761.677,-259.5001 1761.677,-252.5001"/>
</g>
<!-- FormsModule -->
<g id="node5" class="node">
<title>FormsModule</title>
<polygon fill="#8dd3c7" stroke="#000000" points="2114.8288,-122 2111.8288,-126 2090.8288,-126 2087.8288,-122 2019.1712,-122 2019.1712,-86 2114.8288,-86 2114.8288,-122"/>
<text text-anchor="middle" x="2067" y="-99.8" font-family="Times,serif" font-size="14.00" fill="#000000">FormsModule</text>
</g>
<!-- FormsModule&#45;&gt;AppModule -->
<g id="edge4" class="edge">
<title>FormsModule&#45;&gt;AppModule</title>
<path fill="none" stroke="#000000" d="M2082.888,-122.1246C2082.888,-163.6261 2082.888,-262 2082.888,-262 2082.888,-262 1761.6896,-262 1761.6896,-262"/>
<polygon fill="#000000" stroke="#000000" points="1761.6896,-258.5001 1751.6896,-262 1761.6896,-265.5001 1761.6896,-258.5001"/>
</g>
<!-- ReactiveFormsModule -->
<g id="node6" class="node">
<title>ReactiveFormsModule</title>
<polygon fill="#8dd3c7" stroke="#000000" points="2277.3047,-122 2274.3047,-126 2253.3047,-126 2250.3047,-122 2132.6953,-122 2132.6953,-86 2277.3047,-86 2277.3047,-122"/>
<text text-anchor="middle" x="2205" y="-99.8" font-family="Times,serif" font-size="14.00" fill="#000000">ReactiveFormsModule</text>
</g>
<!-- ReactiveFormsModule&#45;&gt;AppModule -->
<g id="edge5" class="edge">
<title>ReactiveFormsModule&#45;&gt;AppModule</title>
<path fill="none" stroke="#000000" d="M2205,-122.1775C2205,-164.8769 2205,-268 2205,-268 2205,-268 1761.7768,-268 1761.7768,-268"/>
<polygon fill="#000000" stroke="#000000" points="1761.7768,-264.5001 1751.7768,-268 1761.7768,-271.5001 1761.7768,-264.5001"/>
</g>
<!-- RouterModule.forRoot(args) -->
<g id="node7" class="node">
<title>RouterModule.forRoot(args)</title>
<polygon fill="#8dd3c7" stroke="#000000" points="1250.8419,-122 1247.8419,-126 1226.8419,-126 1223.8419,-122 1073.1581,-122 1073.1581,-86 1250.8419,-86 1250.8419,-122"/>
<text text-anchor="middle" x="1162" y="-99.8" font-family="Times,serif" font-size="14.00" fill="#000000">RouterModule.forRoot(args)</text>
</g>
<!-- RouterModule.forRoot(args)&#45;&gt;AppModule -->
<g id="edge6" class="edge">
<title>RouterModule.forRoot(args)&#45;&gt;AppModule</title>
<path fill="none" stroke="#000000" d="M1214.7758,-122.1958C1214.7758,-161.3337 1214.7758,-250 1214.7758,-250 1214.7758,-250 1658.2043,-250 1658.2043,-250"/>
<polygon fill="#000000" stroke="#000000" points="1658.2043,-253.5001 1668.2043,-250 1658.2042,-246.5001 1658.2043,-253.5001"/>
</g>
<!-- StoreModule.forRoot(args) -->
<g id="node8" class="node">
<title>StoreModule.forRoot(args)</title>
<polygon fill="#8dd3c7" stroke="#000000" points="1437.2877,-122 1434.2877,-126 1413.2877,-126 1410.2877,-122 1268.7123,-122 1268.7123,-86 1437.2877,-86 1437.2877,-122"/>
<text text-anchor="middle" x="1353" y="-99.8" font-family="Times,serif" font-size="14.00" fill="#000000">StoreModule.forRoot(args)</text>
</g>
<!-- StoreModule.forRoot(args)&#45;&gt;AppModule -->
<g id="edge7" class="edge">
<title>StoreModule.forRoot(args)&#45;&gt;AppModule</title>
<path fill="none" stroke="#000000" d="M1353,-122.0159C1353,-159.8277 1353,-244 1353,-244 1353,-244 1657.9978,-244 1657.9978,-244"/>
<polygon fill="#000000" stroke="#000000" points="1657.9978,-247.5001 1667.9978,-244 1657.9977,-240.5001 1657.9978,-247.5001"/>
</g>
<!-- StoreDevtoolsModule.instrument() -->
<g id="node9" class="node">
<title>StoreDevtoolsModule.instrument()</title>
<polygon fill="#8dd3c7" stroke="#000000" points="1668.3489,-122 1665.3489,-126 1644.3489,-126 1641.3489,-122 1455.6511,-122 1455.6511,-86 1668.3489,-86 1668.3489,-122"/>
<text text-anchor="middle" x="1562" y="-99.8" font-family="Times,serif" font-size="14.00" fill="#000000">StoreDevtoolsModule.instrument()</text>
</g>
<!-- StoreDevtoolsModule.instrument()&#45;&gt;AppModule -->
<g id="edge8" class="edge">
<title>StoreDevtoolsModule.instrument()&#45;&gt;AppModule</title>
<path fill="none" stroke="#000000" d="M1661.8512,-122.1775C1661.8512,-164.8769 1661.8512,-268 1661.8512,-268 1661.8512,-268 1662.4806,-268 1662.4806,-268"/>
<polygon fill="#000000" stroke="#000000" points="1658.1458,-271.5002 1668.1458,-268 1658.1457,-264.5002 1658.1458,-271.5002"/>
</g>
<!-- CategoryModule -->
<g id="node10" class="node">
<title>CategoryModule</title>
<polygon fill="#8dd3c7" stroke="#000000" points="1067.3669,-198 1064.3669,-202 1043.3669,-202 1040.3669,-198 956.6331,-198 956.6331,-162 1067.3669,-162 1067.3669,-198"/>
<text text-anchor="middle" x="1012" y="-175.8" font-family="Times,serif" font-size="14.00" fill="#000000">CategoryModule</text>
</g>
<!-- CategoryModule&#45;&gt;AppModule -->
<g id="edge9" class="edge">
<title>CategoryModule&#45;&gt;AppModule</title>
<path fill="none" stroke="#000000" d="M1012,-198.1985C1012,-222.3563 1012,-262 1012,-262 1012,-262 1658.1684,-262 1658.1684,-262"/>
<polygon fill="#000000" stroke="#000000" points="1658.1684,-265.5001 1668.1684,-262 1658.1684,-258.5001 1658.1684,-265.5001"/>
</g>
<!-- CoreModule -->
<g id="node11" class="node">
<title>CoreModule</title>
<polygon fill="#8dd3c7" stroke="#000000" points="1773.2619,-122 1770.2619,-126 1749.2619,-126 1746.2619,-122 1686.7381,-122 1686.7381,-86 1773.2619,-86 1773.2619,-122"/>
<text text-anchor="middle" x="1730" y="-99.8" font-family="Times,serif" font-size="14.00" fill="#000000">CoreModule</text>
</g>
<!-- CoreModule&#45;&gt;AppModule -->
<g id="edge10" class="edge">
<title>CoreModule&#45;&gt;AppModule</title>
<path fill="none" stroke="#000000" d="M1708.3555,-122.0333C1708.3555,-122.0333 1708.3555,-227.9902 1708.3555,-227.9902"/>
<polygon fill="#000000" stroke="#000000" points="1704.8556,-227.9901 1708.3555,-237.9902 1711.8556,-227.9902 1704.8556,-227.9901"/>
</g>
<!-- HomeModule -->
<g id="node12" class="node">
<title>HomeModule</title>
<polygon fill="#8dd3c7" stroke="#000000" points="1178.7619,-198 1175.7619,-202 1154.7619,-202 1151.7619,-198 1085.2381,-198 1085.2381,-162 1178.7619,-162 1178.7619,-198"/>
<text text-anchor="middle" x="1132" y="-175.8" font-family="Times,serif" font-size="14.00" fill="#000000">HomeModule</text>
</g>
<!-- HomeModule&#45;&gt;AppModule -->
<g id="edge11" class="edge">
<title>HomeModule&#45;&gt;AppModule</title>
<path fill="none" stroke="#000000" d="M1132,-198.0109C1132,-220.4852 1132,-256 1132,-256 1132,-256 1657.9661,-256 1657.9661,-256"/>
<polygon fill="#000000" stroke="#000000" points="1657.9661,-259.5001 1667.9661,-256 1657.966,-252.5001 1657.9661,-259.5001"/>
</g>
<!-- LayoutModule -->
<g id="node13" class="node">
<title>LayoutModule</title>
<polygon fill="#8dd3c7" stroke="#000000" points="1630.7078,-198 1627.7078,-202 1606.7078,-202 1603.7078,-198 1531.2922,-198 1531.2922,-162 1630.7078,-162 1630.7078,-198"/>
<text text-anchor="middle" x="1581" y="-175.8" font-family="Times,serif" font-size="14.00" fill="#000000">LayoutModule</text>
</g>
<!-- LayoutModule&#45;&gt;AppModule -->
<g id="edge12" class="edge">
<title>LayoutModule&#45;&gt;AppModule</title>
<path fill="none" stroke="#000000" d="M1630.6669,-189C1652.9539,-189 1674.3226,-189 1674.3226,-189 1674.3226,-189 1674.3226,-227.692 1674.3226,-227.692"/>
<polygon fill="#000000" stroke="#000000" points="1670.8227,-227.6919 1674.3226,-237.692 1677.8227,-227.692 1670.8227,-227.6919"/>
</g>
<!-- HeaderComponent  -->
<g id="node22" class="node">
<title>HeaderComponent </title>
<polygon fill="#fb8072" stroke="#000000" points="2572.7436,-274 2447.2564,-274 2447.2564,-238 2572.7436,-238 2572.7436,-274"/>
<text text-anchor="middle" x="2510" y="-251.8" font-family="Times,serif" font-size="14.00" fill="#000000">HeaderComponent </text>
</g>
<!-- LayoutModule&#45;&gt;HeaderComponent  -->
<g id="edge25" class="edge">
<title>LayoutModule&#45;&gt;HeaderComponent </title>
<path fill="none" stroke="#000000" stroke-dasharray="5,2" d="M1630.8651,-171C1751.8541,-171 2051.112,-171 2051.112,-171 2051.112,-171 2051.112,-244 2051.112,-244 2051.112,-244 2437.1558,-244 2437.1558,-244"/>
<polygon fill="#000000" stroke="#000000" points="2437.1558,-247.5001 2447.1558,-244 2437.1557,-240.5001 2437.1558,-247.5001"/>
</g>
<!-- SharedModule -->
<g id="node14" class="node">
<title>SharedModule</title>
<polygon fill="#8dd3c7" stroke="#000000" points="1055.4231,-122 1052.4231,-126 1031.4231,-126 1028.4231,-122 956.5769,-122 956.5769,-86 1055.4231,-86 1055.4231,-122"/>
<text text-anchor="middle" x="1006" y="-99.8" font-family="Times,serif" font-size="14.00" fill="#000000">SharedModule</text>
</g>
<!-- SharedModule&#45;&gt;AppModule -->
<g id="edge13" class="edge">
<title>SharedModule&#45;&gt;AppModule</title>
<path fill="none" stroke="#000000" d="M1027.0905,-122.0449C1027.0905,-129.749 1027.0905,-137 1027.0905,-137 1027.0905,-137 1680.4709,-137 1680.4709,-137 1680.4709,-137 1680.4709,-227.9265 1680.4709,-227.9265"/>
<polygon fill="#000000" stroke="#000000" points="1676.971,-227.9264 1680.4709,-237.9265 1683.971,-227.9265 1676.971,-227.9264"/>
</g>
<!-- SharedModule&#45;&gt;CategoryModule -->
<g id="edge18" class="edge">
<title>SharedModule&#45;&gt;CategoryModule</title>
<path fill="none" stroke="#000000" d="M970.8492,-122.0109C970.8492,-122.0109 970.8492,-151.855 970.8492,-151.855"/>
<polygon fill="#000000" stroke="#000000" points="967.3493,-151.8549 970.8492,-161.855 974.3493,-151.855 967.3493,-151.8549"/>
</g>
<!-- SharedModule&#45;&gt;HomeModule -->
<g id="edge21" class="edge">
<title>SharedModule&#45;&gt;HomeModule</title>
<path fill="none" stroke="#000000" d="M998.9698,-122.4854C998.9698,-134.1399 998.9698,-147 998.9698,-147 998.9698,-147 1155.4404,-147 1155.4404,-147 1155.4404,-147 1155.4404,-151.9551 1155.4404,-151.9551"/>
<polygon fill="#000000" stroke="#000000" points="1151.9405,-151.9551 1155.4404,-161.9551 1158.9405,-151.9552 1151.9405,-151.9551"/>
</g>
<!-- SharedModule&#45;&gt;LayoutModule -->
<g id="edge24" class="edge">
<title>SharedModule&#45;&gt;LayoutModule</title>
<path fill="none" stroke="#000000" d="M1013.0302,-122.1097C1013.0302,-131.897 1013.0302,-142 1013.0302,-142 1013.0302,-142 1581,-142 1581,-142 1581,-142 1581,-151.8903 1581,-151.8903"/>
<polygon fill="#000000" stroke="#000000" points="1577.5001,-151.8903 1581,-161.8903 1584.5001,-151.8904 1577.5001,-151.8903"/>
</g>
<!-- CommonModule  -->
<g id="node24" class="node">
<title>CommonModule </title>
<polygon fill="#fb8072" stroke="#000000" points="2562.6677,-198 2447.3323,-198 2447.3323,-162 2562.6677,-162 2562.6677,-198"/>
<text text-anchor="middle" x="2505" y="-175.8" font-family="Times,serif" font-size="14.00" fill="#000000">CommonModule </text>
</g>
<!-- SharedModule&#45;&gt;CommonModule  -->
<g id="edge27" class="edge">
<title>SharedModule&#45;&gt;CommonModule </title>
<path fill="none" stroke="#000000" stroke-dasharray="5,2" d="M1041.1508,-122.207C1041.1508,-127.5549 1041.1508,-132 1041.1508,-132 1041.1508,-132 2505,-132 2505,-132 2505,-132 2505,-151.8533 2505,-151.8533"/>
<polygon fill="#000000" stroke="#000000" points="2501.5001,-151.8532 2505,-161.8533 2508.5001,-151.8533 2501.5001,-151.8532"/>
</g>
<!-- CategoryListComponent -->
<g id="node16" class="node">
<title>CategoryListComponent</title>
<polygon fill="#ffffb3" stroke="#000000" points="368.4284,-122 213.5716,-122 213.5716,-86 368.4284,-86 368.4284,-122"/>
<text text-anchor="middle" x="291" y="-99.8" font-family="Times,serif" font-size="14.00" fill="#000000">CategoryListComponent</text>
</g>
<!-- CategoryListComponent&#45;&gt;CategoryModule -->
<g id="edge15" class="edge">
<title>CategoryListComponent&#45;&gt;CategoryModule</title>
<path fill="none" stroke="#000000" d="M291,-122.1532C291,-145.7566 291,-184 291,-184 291,-184 946.6215,-184 946.6215,-184"/>
<polygon fill="#000000" stroke="#000000" points="946.6216,-187.5001 956.6215,-184 946.6215,-180.5001 946.6216,-187.5001"/>
</g>
<!-- CategoryDetailsComponent -->
<g id="node17" class="node">
<title>CategoryDetailsComponent</title>
<polygon fill="#ffffb3" stroke="#000000" points="196.3019,-122 23.6981,-122 23.6981,-86 196.3019,-86 196.3019,-122"/>
<text text-anchor="middle" x="110" y="-99.8" font-family="Times,serif" font-size="14.00" fill="#000000">CategoryDetailsComponent</text>
</g>
<!-- CategoryDetailsComponent&#45;&gt;CategoryModule -->
<g id="edge16" class="edge">
<title>CategoryDetailsComponent&#45;&gt;CategoryModule</title>
<path fill="none" stroke="#000000" d="M110,-122.0265C110,-147.5093 110,-191 110,-191 110,-191 946.5956,-191 946.5956,-191"/>
<polygon fill="#000000" stroke="#000000" points="946.5956,-194.5001 956.5956,-191 946.5955,-187.5001 946.5956,-194.5001"/>
</g>
<!-- CategoryFormComponent -->
<g id="node18" class="node">
<title>CategoryFormComponent</title>
<polygon fill="#ffffb3" stroke="#000000" points="549.4832,-122 386.5168,-122 386.5168,-86 549.4832,-86 549.4832,-122"/>
<text text-anchor="middle" x="468" y="-99.8" font-family="Times,serif" font-size="14.00" fill="#000000">CategoryFormComponent</text>
</g>
<!-- CategoryFormComponent&#45;&gt;CategoryModule -->
<g id="edge17" class="edge">
<title>CategoryFormComponent&#45;&gt;CategoryModule</title>
<path fill="none" stroke="#000000" d="M468,-122.0449C468,-143.6623 468,-177 468,-177 468,-177 946.592,-177 946.592,-177"/>
<polygon fill="#000000" stroke="#000000" points="946.5921,-180.5001 956.592,-177 946.592,-173.5001 946.5921,-180.5001"/>
</g>
<!-- RouterModule.forChild(args) -->
<g id="node19" class="node">
<title>RouterModule.forChild(args)</title>
<polygon fill="#8dd3c7" stroke="#000000" points="754.7323,-122 751.7323,-126 730.7323,-126 727.7323,-122 573.2677,-122 573.2677,-86 754.7323,-86 754.7323,-122"/>
<text text-anchor="middle" x="664" y="-99.8" font-family="Times,serif" font-size="14.00" fill="#000000">RouterModule.forChild(args)</text>
</g>
<!-- RouterModule.forChild(args)&#45;&gt;CategoryModule -->
<g id="edge19" class="edge">
<title>RouterModule.forChild(args)&#45;&gt;CategoryModule</title>
<path fill="none" stroke="#000000" d="M694.2054,-122.0348C694.2054,-141.5762 694.2054,-170 694.2054,-170 694.2054,-170 946.2807,-170 946.2807,-170"/>
<polygon fill="#000000" stroke="#000000" points="946.2808,-173.5001 956.2807,-170 946.2807,-166.5001 946.2808,-173.5001"/>
</g>
<!-- RouterModule.forChild(args)&#45;&gt;HomeModule -->
<g id="edge22" class="edge">
<title>RouterModule.forChild(args)&#45;&gt;HomeModule</title>
<path fill="none" stroke="#000000" d="M633.7946,-122.2396C633.7946,-137.5706 633.7946,-157 633.7946,-157 633.7946,-157 1108.5596,-157 1108.5596,-157 1108.5596,-157 1108.5596,-157.4878 1108.5596,-157.4878"/>
<polygon fill="#000000" stroke="#000000" points="1105.0598,-151.8776 1108.5596,-161.8777 1112.0598,-151.8778 1105.0598,-151.8776"/>
</g>
<!-- BannerComponent -->
<g id="node20" class="node">
<title>BannerComponent</title>
<polygon fill="#ffffb3" stroke="#000000" points="916.759,-122 795.241,-122 795.241,-86 916.759,-86 916.759,-122"/>
<text text-anchor="middle" x="856" y="-99.8" font-family="Times,serif" font-size="14.00" fill="#000000">BannerComponent</text>
</g>
<!-- BannerComponent&#45;&gt;HomeModule -->
<g id="edge20" class="edge">
<title>BannerComponent&#45;&gt;HomeModule</title>
<path fill="none" stroke="#000000" d="M856,-122.1467C856,-135.7395 856,-152 856,-152 856,-152 1132,-152 1132,-152 1132,-152 1132,-152.9793 1132,-152.9793"/>
<polygon fill="#000000" stroke="#000000" points="1128.5001,-151.793 1132,-161.793 1135.5001,-151.7931 1128.5001,-151.793"/>
</g>
<!-- HeaderComponent -->
<g id="node21" class="node">
<title>HeaderComponent</title>
<polygon fill="#ffffb3" stroke="#000000" points="2718.7437,-274 2597.2563,-274 2597.2563,-238 2718.7437,-238 2718.7437,-274"/>
<text text-anchor="middle" x="2658" y="-251.8" font-family="Times,serif" font-size="14.00" fill="#000000">HeaderComponent</text>
</g>
<!-- HeaderComponent&#45;&gt;LayoutModule -->
<g id="edge23" class="edge">
<title>HeaderComponent&#45;&gt;LayoutModule</title>
<path fill="none" stroke="#000000" d="M2647.9811,-237.8903C2647.9811,-228.103 2647.9811,-218 2647.9811,-218 2647.9811,-218 1581,-218 1581,-218 1581,-218 1581,-208.1097 1581,-208.1097"/>
<polygon fill="#000000" stroke="#000000" points="1584.5001,-208.1096 1581,-198.1097 1577.5001,-208.1097 1584.5001,-208.1096"/>
</g>
<!-- CommonModule -->
<g id="node23" class="node">
<title>CommonModule</title>
<polygon fill="#8dd3c7" stroke="#000000" points="2698.6681,-198 2695.6681,-202 2674.6681,-202 2671.6681,-198 2587.3319,-198 2587.3319,-162 2698.6681,-162 2698.6681,-198"/>
<text text-anchor="middle" x="2643" y="-175.8" font-family="Times,serif" font-size="14.00" fill="#000000">CommonModule</text>
</g>
<!-- CommonModule&#45;&gt;SharedModule -->
<g id="edge26" class="edge">
<title>CommonModule&#45;&gt;SharedModule</title>
<path fill="none" stroke="#000000" d="M2643,-161.7604C2643,-146.4294 2643,-127 2643,-127 2643,-127 984.9095,-127 984.9095,-127 984.9095,-127 984.9095,-126.5122 984.9095,-126.5122"/>
<polygon fill="#000000" stroke="#000000" points="988.4098,-132.1222 984.9095,-122.1223 981.4098,-132.1224 988.4098,-132.1222"/>
</g>
</g>
</svg>
