<?xml version="1.0" encoding="UTF-8" standalone="no"?>
<!DOCTYPE svg PUBLIC "-//W3C//DTD SVG 1.1//EN"
 "http://www.w3.org/Graphics/SVG/1.1/DTD/svg11.dtd">
<!-- Generated by graphviz version 2.40.1 (20161225.0304)
 -->
<!-- Title: dependencies Pages: 1 -->
<svg width="2705pt" height="374pt"
 viewBox="0.00 0.00 2705.00 374.00" xmlns="http://www.w3.org/2000/svg" xmlns:xlink="http://www.w3.org/1999/xlink">
<g id="graph0" class="graph" transform="scale(1 1) rotate(0) translate(4 370)">
<title>dependencies</title>
<polygon fill="#ffffff" stroke="transparent" points="-4,4 -4,-370 2701,-370 2701,4 -4,4"/>
<text text-anchor="start" x="1327.5091" y="-42.4" font-family="sans-serif" font-weight="bold" font-size="14.00" fill="#000000">Legend</text>
<polygon fill="#ffffb3" stroke="transparent" points="1114.5,-10 1114.5,-30 1134.5,-30 1134.5,-10 1114.5,-10"/>
<text text-anchor="start" x="1138.129" y="-15.4" font-family="sans-serif" font-size="14.00" fill="#000000"> &#160;Declarations</text>
<polygon fill="#8dd3c7" stroke="transparent" points="1227.5,-10 1227.5,-30 1247.5,-30 1247.5,-10 1227.5,-10"/>
<text text-anchor="start" x="1251.2251" y="-15.4" font-family="sans-serif" font-size="14.00" fill="#000000"> &#160;Module</text>
<polygon fill="#80b1d3" stroke="transparent" points="1313.5,-10 1313.5,-30 1333.5,-30 1333.5,-10 1313.5,-10"/>
<text text-anchor="start" x="1337.2812" y="-15.4" font-family="sans-serif" font-size="14.00" fill="#000000"> &#160;Bootstrap</text>
<polygon fill="#fdb462" stroke="transparent" points="1410.5,-10 1410.5,-30 1430.5,-30 1430.5,-10 1410.5,-10"/>
<text text-anchor="start" x="1434.1732" y="-15.4" font-family="sans-serif" font-size="14.00" fill="#000000"> &#160;Providers</text>
<polygon fill="#fb8072" stroke="transparent" points="1506.5,-10 1506.5,-30 1526.5,-30 1526.5,-10 1506.5,-10"/>
<text text-anchor="start" x="1530.2258" y="-15.4" font-family="sans-serif" font-size="14.00" fill="#000000"> &#160;Exports</text>
<g id="clust1" class="cluster">
<title>cluster_AppModule</title>
<polygon fill="none" stroke="#000000" stroke-dasharray="1,5" points="230,-70 230,-358 1587,-358 1587,-70 230,-70"/>
</g>
<g id="clust3" class="cluster">
<title>cluster_AppModule_imports</title>
<polygon fill="none" stroke="#000000" points="238,-78 238,-206 1579,-206 1579,-78 238,-78"/>
</g>
<g id="clust5" class="cluster">
<title>cluster_AppModule_bootstrap</title>
<polygon fill="none" stroke="#000000" points="908,-298 908,-350 1032,-350 1032,-298 908,-298"/>
</g>
<g id="clust7" class="cluster">
<title>cluster_CategoryModule</title>
<polygon fill="none" stroke="#000000" stroke-dasharray="1,5" points="8,-70 8,-138 222,-138 222,-70 8,-70"/>
</g>
<g id="clust9" class="cluster">
<title>cluster_CategoryModule_imports</title>
<polygon fill="none" stroke="#000000" points="16,-78 16,-130 214,-130 214,-78 16,-78"/>
</g>
<g id="clust13" class="cluster">
<title>cluster_CoreModule</title>
<polygon fill="none" stroke="#000000" stroke-dasharray="1,5" points="1595,-222 1595,-290 1875,-290 1875,-222 1595,-222"/>
</g>
<g id="clust15" class="cluster">
<title>cluster_CoreModule_imports</title>
<polygon fill="none" stroke="#000000" points="1753,-230 1753,-282 1867,-282 1867,-230 1753,-230"/>
</g>
<g id="clust16" class="cluster">
<title>cluster_CoreModule_exports</title>
<polygon fill="none" stroke="#000000" points="1603,-230 1603,-282 1745,-282 1745,-230 1603,-230"/>
</g>
<g id="clust25" class="cluster">
<title>cluster_SharedModule</title>
<polygon fill="none" stroke="#000000" stroke-dasharray="1,5" points="1595,-146 1595,-214 2689,-214 2689,-146 1595,-146"/>
</g>
<g id="clust27" class="cluster">
<title>cluster_SharedModule_imports</title>
<polygon fill="none" stroke="#000000" points="2153,-154 2153,-206 2681,-206 2681,-154 2153,-154"/>
</g>
<g id="clust28" class="cluster">
<title>cluster_SharedModule_exports</title>
<polygon fill="none" stroke="#000000" points="1603,-154 1603,-206 2145,-206 2145,-154 1603,-154"/>
</g>
<!-- BrowserModule -->
<g id="node1" class="node">
<title>BrowserModule</title>
<polygon fill="#8dd3c7" stroke="#000000" points="549.4734,-122 546.4734,-126 525.4734,-126 522.4734,-122 442.5266,-122 442.5266,-86 549.4734,-86 549.4734,-122"/>
<text text-anchor="middle" x="496" y="-99.8" font-family="Times,serif" font-size="14.00" fill="#000000">BrowserModule</text>
</g>
<!-- AppModule -->
<g id="node12" class="node">
<title>AppModule</title>
<polygon fill="#8dd3c7" stroke="#000000" points="1011.6571,-274 1008.6571,-278 987.6571,-278 984.6571,-274 928.3429,-274 928.3429,-238 1011.6571,-238 1011.6571,-274"/>
<text text-anchor="middle" x="970" y="-251.8" font-family="Times,serif" font-size="14.00" fill="#000000">AppModule</text>
</g>
<!-- BrowserModule&#45;&gt;AppModule -->
<g id="edge1" class="edge">
<title>BrowserModule&#45;&gt;AppModule</title>
<path fill="none" stroke="#000000" d="M496,-122.2005C496,-163.3516 496,-260 496,-260 496,-260 917.9357,-260 917.9357,-260"/>
<polygon fill="#000000" stroke="#000000" points="917.9357,-263.5001 927.9357,-260 917.9356,-256.5001 917.9357,-263.5001"/>
</g>
<!-- BrowserAnimationsModule -->
<g id="node2" class="node">
<title>BrowserAnimationsModule</title>
<polygon fill="#8dd3c7" stroke="#000000" points="1455.3019,-122 1452.3019,-126 1431.3019,-126 1428.3019,-122 1282.6981,-122 1282.6981,-86 1455.3019,-86 1455.3019,-122"/>
<text text-anchor="middle" x="1369" y="-99.8" font-family="Times,serif" font-size="14.00" fill="#000000">BrowserAnimationsModule</text>
</g>
<!-- BrowserAnimationsModule&#45;&gt;AppModule -->
<g id="edge2" class="edge">
<title>BrowserAnimationsModule&#45;&gt;AppModule</title>
<path fill="none" stroke="#000000" d="M1325.2342,-122.0099C1325.2342,-163.2487 1325.2342,-261 1325.2342,-261 1325.2342,-261 1021.7945,-261 1021.7945,-261"/>
<polygon fill="#000000" stroke="#000000" points="1021.7945,-257.5001 1011.7945,-261 1021.7944,-264.5001 1021.7945,-257.5001"/>
</g>
<!-- HttpModule -->
<g id="node3" class="node">
<title>HttpModule</title>
<polygon fill="#8dd3c7" stroke="#000000" points="652.4387,-122 649.4387,-126 628.4387,-126 625.4387,-122 567.5613,-122 567.5613,-86 652.4387,-86 652.4387,-122"/>
<text text-anchor="middle" x="610" y="-99.8" font-family="Times,serif" font-size="14.00" fill="#000000">HttpModule</text>
</g>
<!-- HttpModule&#45;&gt;AppModule -->
<g id="edge3" class="edge">
<title>HttpModule&#45;&gt;AppModule</title>
<path fill="none" stroke="#000000" d="M610,-122.2703C610,-162.0576 610,-253 610,-253 610,-253 917.9989,-253 917.9989,-253"/>
<polygon fill="#000000" stroke="#000000" points="917.9989,-256.5001 927.9989,-253 917.9988,-249.5001 917.9989,-256.5001"/>
</g>
<!-- RouterModule.forRoot(args) -->
<g id="node4" class="node">
<title>RouterModule.forRoot(args)</title>
<polygon fill="#8dd3c7" stroke="#000000" points="847.8419,-122 844.8419,-126 823.8419,-126 820.8419,-122 670.1581,-122 670.1581,-86 847.8419,-86 847.8419,-122"/>
<text text-anchor="middle" x="759" y="-99.8" font-family="Times,serif" font-size="14.00" fill="#000000">RouterModule.forRoot(args)</text>
</g>
<!-- RouterModule.forRoot(args)&#45;&gt;AppModule -->
<g id="edge4" class="edge">
<title>RouterModule.forRoot(args)&#45;&gt;AppModule</title>
<path fill="none" stroke="#000000" d="M759,-122.2733C759,-160.6253 759,-246 759,-246 759,-246 918.3132,-246 918.3132,-246"/>
<polygon fill="#000000" stroke="#000000" points="918.3132,-249.5001 928.3132,-246 918.3132,-242.5001 918.3132,-249.5001"/>
</g>
<!-- StoreModule.forRoot(args) -->
<g id="node5" class="node">
<title>StoreModule.forRoot(args)</title>
<polygon fill="#8dd3c7" stroke="#000000" points="1034.2877,-122 1031.2877,-126 1010.2877,-126 1007.2877,-122 865.7123,-122 865.7123,-86 1034.2877,-86 1034.2877,-122"/>
<text text-anchor="middle" x="950" y="-99.8" font-family="Times,serif" font-size="14.00" fill="#000000">StoreModule.forRoot(args)</text>
</g>
<!-- StoreModule.forRoot(args)&#45;&gt;AppModule -->
<g id="edge5" class="edge">
<title>StoreModule.forRoot(args)&#45;&gt;AppModule</title>
<path fill="none" stroke="#000000" d="M968.6455,-122.0333C968.6455,-122.0333 968.6455,-227.9902 968.6455,-227.9902"/>
<polygon fill="#000000" stroke="#000000" points="965.1456,-227.9901 968.6455,-237.9902 972.1456,-227.9902 965.1456,-227.9901"/>
</g>
<!-- StoreDevtoolsModule.instrument() -->
<g id="node6" class="node">
<title>StoreDevtoolsModule.instrument()</title>
<polygon fill="#8dd3c7" stroke="#000000" points="1265.3489,-122 1262.3489,-126 1241.3489,-126 1238.3489,-122 1052.6511,-122 1052.6511,-86 1265.3489,-86 1265.3489,-122"/>
<text text-anchor="middle" x="1159" y="-99.8" font-family="Times,serif" font-size="14.00" fill="#000000">StoreDevtoolsModule.instrument()</text>
</g>
<!-- StoreDevtoolsModule.instrument()&#45;&gt;AppModule -->
<g id="edge6" class="edge">
<title>StoreDevtoolsModule.instrument()&#45;&gt;AppModule</title>
<path fill="none" stroke="#000000" d="M1111.7237,-122.1477C1111.7237,-161.668 1111.7237,-252 1111.7237,-252 1111.7237,-252 1021.7552,-252 1021.7552,-252"/>
<polygon fill="#000000" stroke="#000000" points="1021.7553,-248.5001 1011.7552,-252 1021.7552,-255.5001 1021.7553,-248.5001"/>
</g>
<!-- EffectsModule.forRoot(args) -->
<g id="node7" class="node">
<title>EffectsModule.forRoot(args)</title>
<polygon fill="#8dd3c7" stroke="#000000" points="424.3774,-122 421.3774,-126 400.3774,-126 397.3774,-122 245.6226,-122 245.6226,-86 424.3774,-86 424.3774,-122"/>
<text text-anchor="middle" x="335" y="-99.8" font-family="Times,serif" font-size="14.00" fill="#000000">EffectsModule.forRoot(args)</text>
</g>
<!-- EffectsModule.forRoot(args)&#45;&gt;AppModule -->
<g id="edge7" class="edge">
<title>EffectsModule.forRoot(args)&#45;&gt;AppModule</title>
<path fill="none" stroke="#000000" d="M335,-122.0666C335,-164.5057 335,-267 335,-267 335,-267 918.3359,-267 918.3359,-267"/>
<polygon fill="#000000" stroke="#000000" points="918.3359,-270.5001 928.3359,-267 918.3358,-263.5001 918.3359,-270.5001"/>
</g>
<!-- CategoryModule -->
<g id="node8" class="node">
<title>CategoryModule</title>
<polygon fill="#8dd3c7" stroke="#000000" points="1231.3669,-198 1228.3669,-202 1207.3669,-202 1204.3669,-198 1120.6331,-198 1120.6331,-162 1231.3669,-162 1231.3669,-198"/>
<text text-anchor="middle" x="1176" y="-175.8" font-family="Times,serif" font-size="14.00" fill="#000000">CategoryModule</text>
</g>
<!-- CategoryModule&#45;&gt;AppModule -->
<g id="edge8" class="edge">
<title>CategoryModule&#45;&gt;AppModule</title>
<path fill="none" stroke="#000000" d="M1176,-198.0109C1176,-220.4852 1176,-256 1176,-256 1176,-256 1021.6872,-256 1021.6872,-256"/>
<polygon fill="#000000" stroke="#000000" points="1021.6872,-252.5001 1011.6872,-256 1021.6871,-259.5001 1021.6872,-252.5001"/>
</g>
<!-- CoreModule -->
<g id="node9" class="node">
<title>CoreModule</title>
<polygon fill="#8dd3c7" stroke="#000000" points="1454.2619,-198 1451.2619,-202 1430.2619,-202 1427.2619,-198 1367.7381,-198 1367.7381,-162 1454.2619,-162 1454.2619,-198"/>
<text text-anchor="middle" x="1411" y="-175.8" font-family="Times,serif" font-size="14.00" fill="#000000">CoreModule</text>
</g>
<!-- CoreModule&#45;&gt;AppModule -->
<g id="edge9" class="edge">
<title>CoreModule&#45;&gt;AppModule</title>
<path fill="none" stroke="#000000" d="M1389.3096,-198.0263C1389.3096,-222.9773 1389.3096,-265 1389.3096,-265 1389.3096,-265 1021.738,-265 1021.738,-265"/>
<polygon fill="#000000" stroke="#000000" points="1021.738,-261.5001 1011.738,-265 1021.7379,-268.5001 1021.738,-261.5001"/>
</g>
<!-- HeaderComponent  -->
<g id="node16" class="node">
<title>HeaderComponent </title>
<polygon fill="#fb8072" stroke="#000000" points="1736.7436,-274 1611.2564,-274 1611.2564,-238 1736.7436,-238 1736.7436,-274"/>
<text text-anchor="middle" x="1674" y="-251.8" font-family="Times,serif" font-size="14.00" fill="#000000">HeaderComponent </text>
</g>
<!-- CoreModule&#45;&gt;HeaderComponent  -->
<g id="edge17" class="edge">
<title>CoreModule&#45;&gt;HeaderComponent </title>
<path fill="none" stroke="#000000" stroke-dasharray="5,2" d="M1432.6904,-198.2222C1432.6904,-216.8285 1432.6904,-243 1432.6904,-243 1432.6904,-243 1601.2287,-243 1601.2287,-243"/>
<polygon fill="#000000" stroke="#000000" points="1601.2287,-246.5001 1611.2287,-243 1601.2286,-239.5001 1601.2287,-246.5001"/>
</g>
<!-- HomeModule -->
<g id="node10" class="node">
<title>HomeModule</title>
<polygon fill="#8dd3c7" stroke="#000000" points="1102.7619,-198 1099.7619,-202 1078.7619,-202 1075.7619,-198 1009.2381,-198 1009.2381,-162 1102.7619,-162 1102.7619,-198"/>
<text text-anchor="middle" x="1056" y="-175.8" font-family="Times,serif" font-size="14.00" fill="#000000">HomeModule</text>
</g>
<!-- HomeModule&#45;&gt;AppModule -->
<g id="edge10" class="edge">
<title>HomeModule&#45;&gt;AppModule</title>
<path fill="none" stroke="#000000" d="M1018.1489,-198.308C1018.1489,-218.1455 1018.1489,-247 1018.1489,-247 1018.1489,-247 1017.5194,-247 1017.5194,-247"/>
<polygon fill="#000000" stroke="#000000" points="1021.8543,-243.5002 1011.8542,-247 1021.8542,-250.5002 1021.8543,-243.5002"/>
</g>
<!-- SharedModule -->
<g id="node11" class="node">
<title>SharedModule</title>
<polygon fill="#8dd3c7" stroke="#000000" points="1571.4231,-122 1568.4231,-126 1547.4231,-126 1544.4231,-122 1472.5769,-122 1472.5769,-86 1571.4231,-86 1571.4231,-122"/>
<text text-anchor="middle" x="1522" y="-99.8" font-family="Times,serif" font-size="14.00" fill="#000000">SharedModule</text>
</g>
<!-- SharedModule&#45;&gt;CategoryModule -->
<g id="edge13" class="edge">
<title>SharedModule&#45;&gt;CategoryModule</title>
<path fill="none" stroke="#000000" d="M1505.5963,-122.1467C1505.5963,-135.7395 1505.5963,-152 1505.5963,-152 1505.5963,-152 1194.4778,-152 1194.4778,-152 1194.4778,-152 1194.4778,-152.9793 1194.4778,-152.9793"/>
<polygon fill="#000000" stroke="#000000" points="1190.9779,-151.793 1194.4778,-161.793 1197.9779,-151.7931 1190.9779,-151.793"/>
</g>
<!-- SharedModule&#45;&gt;CoreModule -->
<g id="edge16" class="edge">
<title>SharedModule&#45;&gt;CoreModule</title>
<path fill="none" stroke="#000000" d="M1522,-122.1985C1522,-146.3563 1522,-186 1522,-186 1522,-186 1464.5516,-186 1464.5516,-186"/>
<polygon fill="#000000" stroke="#000000" points="1464.5516,-182.5001 1454.5516,-186 1464.5515,-189.5001 1464.5516,-182.5001"/>
</g>
<!-- SharedModule&#45;&gt;HomeModule -->
<g id="edge18" class="edge">
<title>SharedModule&#45;&gt;HomeModule</title>
<path fill="none" stroke="#000000" d="M1489.1926,-122.1097C1489.1926,-131.897 1489.1926,-142 1489.1926,-142 1489.1926,-142 1077.8533,-142 1077.8533,-142 1077.8533,-142 1077.8533,-151.8903 1077.8533,-151.8903"/>
<polygon fill="#000000" stroke="#000000" points="1074.3533,-151.8903 1077.8533,-161.8903 1081.3533,-151.8904 1074.3533,-151.8903"/>
</g>
<!-- SharedModule&#45;&gt;AppModule -->
<g id="edge11" class="edge">
<title>SharedModule&#45;&gt;AppModule</title>
<path fill="none" stroke="#000000" d="M1538.4037,-122.0809C1538.4037,-165.1045 1538.4037,-270 1538.4037,-270 1538.4037,-270 1021.7961,-270 1021.7961,-270"/>
<polygon fill="#000000" stroke="#000000" points="1021.7961,-266.5001 1011.7961,-270 1021.796,-273.5001 1021.7961,-266.5001"/>
</g>
<!-- FormsModule  -->
<g id="node21" class="node">
<title>FormsModule </title>
<polygon fill="#fb8072" stroke="#000000" points="2008.3283,-198 1909.6717,-198 1909.6717,-162 2008.3283,-162 2008.3283,-198"/>
<text text-anchor="middle" x="1959" y="-175.8" font-family="Times,serif" font-size="14.00" fill="#000000">FormsModule </text>
</g>
<!-- SharedModule&#45;&gt;FormsModule  -->
<g id="edge24" class="edge">
<title>SharedModule&#45;&gt;FormsModule </title>
<path fill="none" stroke="#000000" stroke-dasharray="5,2" d="M1571.28,-113C1685.5666,-113 1959,-113 1959,-113 1959,-113 1959,-151.692 1959,-151.692"/>
<polygon fill="#000000" stroke="#000000" points="1955.5001,-151.6919 1959,-161.692 1962.5001,-151.692 1955.5001,-151.6919"/>
</g>
<!-- ReactiveFormsModule  -->
<g id="node22" class="node">
<title>ReactiveFormsModule </title>
<polygon fill="#fb8072" stroke="#000000" points="1891.8045,-198 1744.1955,-198 1744.1955,-162 1891.8045,-162 1891.8045,-198"/>
<text text-anchor="middle" x="1818" y="-175.8" font-family="Times,serif" font-size="14.00" fill="#000000">ReactiveFormsModule </text>
</g>
<!-- SharedModule&#45;&gt;ReactiveFormsModule  -->
<g id="edge25" class="edge">
<title>SharedModule&#45;&gt;ReactiveFormsModule </title>
<path fill="none" stroke="#000000" stroke-dasharray="5,2" d="M1571.5437,-118C1655.8077,-118 1818,-118 1818,-118 1818,-118 1818,-151.7333 1818,-151.7333"/>
<polygon fill="#000000" stroke="#000000" points="1814.5001,-151.7333 1818,-161.7333 1821.5001,-151.7333 1814.5001,-151.7333"/>
</g>
<!-- CommonModule  -->
<g id="node23" class="node">
<title>CommonModule </title>
<polygon fill="#fb8072" stroke="#000000" points="1726.6677,-198 1611.3323,-198 1611.3323,-162 1726.6677,-162 1726.6677,-198"/>
<text text-anchor="middle" x="1669" y="-175.8" font-family="Times,serif" font-size="14.00" fill="#000000">CommonModule </text>
</g>
<!-- SharedModule&#45;&gt;CommonModule  -->
<g id="edge26" class="edge">
<title>SharedModule&#45;&gt;CommonModule </title>
<path fill="none" stroke="#000000" stroke-dasharray="5,2" d="M1554.8074,-122.0267C1554.8074,-142.7672 1554.8074,-174 1554.8074,-174 1554.8074,-174 1601.2346,-174 1601.2346,-174"/>
<polygon fill="#000000" stroke="#000000" points="1601.2347,-177.5001 1611.2346,-174 1601.2346,-170.5001 1601.2347,-177.5001"/>
</g>
<!-- MaterialModule  -->
<g id="node24" class="node">
<title>MaterialModule </title>
<polygon fill="#fb8072" stroke="#000000" points="2137.4716,-198 2026.5284,-198 2026.5284,-162 2137.4716,-162 2137.4716,-198"/>
<text text-anchor="middle" x="2082" y="-175.8" font-family="Times,serif" font-size="14.00" fill="#000000">MaterialModule </text>
</g>
<!-- SharedModule&#45;&gt;MaterialModule  -->
<g id="edge27" class="edge">
<title>SharedModule&#45;&gt;MaterialModule </title>
<path fill="none" stroke="#000000" stroke-dasharray="5,2" d="M1571.6963,-109C1708.7493,-109 2082,-109 2082,-109 2082,-109 2082,-151.7157 2082,-151.7157"/>
<polygon fill="#000000" stroke="#000000" points="2078.5001,-151.7157 2082,-161.7157 2085.5001,-151.7158 2078.5001,-151.7157"/>
</g>
<!-- AppComponent  -->
<g id="node13" class="node">
<title>AppComponent </title>
<polygon fill="#80b1d3" stroke="#000000" points="1024.439,-342 915.561,-342 915.561,-306 1024.439,-306 1024.439,-342"/>
<text text-anchor="middle" x="970" y="-319.8" font-family="Times,serif" font-size="14.00" fill="#000000">AppComponent </text>
</g>
<!-- AppModule&#45;&gt;AppComponent  -->
<g id="edge12" class="edge">
<title>AppModule&#45;&gt;AppComponent </title>
<path fill="none" stroke="#000000" stroke-dasharray="1,5" d="M970,-274.2228C970,-274.2228 970,-295.7269 970,-295.7269"/>
<polygon fill="#000000" stroke="#000000" points="966.5001,-295.7269 970,-305.7269 973.5001,-295.727 966.5001,-295.7269"/>
</g>
<!-- RouterModule.forChild(args) -->
<g id="node14" class="node">
<title>RouterModule.forChild(args)</title>
<polygon fill="#8dd3c7" stroke="#000000" points="205.7323,-122 202.7323,-126 181.7323,-126 178.7323,-122 24.2677,-122 24.2677,-86 205.7323,-86 205.7323,-122"/>
<text text-anchor="middle" x="115" y="-99.8" font-family="Times,serif" font-size="14.00" fill="#000000">RouterModule.forChild(args)</text>
</g>
<!-- RouterModule.forChild(args)&#45;&gt;CategoryModule -->
<g id="edge14" class="edge">
<title>RouterModule.forChild(args)&#45;&gt;CategoryModule</title>
<path fill="none" stroke="#000000" d="M84.7946,-122.207C84.7946,-127.5549 84.7946,-132 84.7946,-132 84.7946,-132 1157.5222,-132 1157.5222,-132 1157.5222,-132 1157.5222,-151.8533 1157.5222,-151.8533"/>
<polygon fill="#000000" stroke="#000000" points="1154.0223,-151.8532 1157.5222,-161.8533 1161.0223,-151.8533 1154.0223,-151.8532"/>
</g>
<!-- RouterModule.forChild(args)&#45;&gt;HomeModule -->
<g id="edge19" class="edge">
<title>RouterModule.forChild(args)&#45;&gt;HomeModule</title>
<path fill="none" stroke="#000000" d="M145.2054,-122.0109C145.2054,-144.4852 145.2054,-180 145.2054,-180 145.2054,-180 998.9496,-180 998.9496,-180"/>
<polygon fill="#000000" stroke="#000000" points="998.9497,-183.5001 1008.9496,-180 998.9496,-176.5001 998.9497,-183.5001"/>
</g>
<!-- RouterModule -->
<g id="node15" class="node">
<title>RouterModule</title>
<polygon fill="#8dd3c7" stroke="#000000" points="1858.6528,-274 1855.6528,-278 1834.6528,-278 1831.6528,-274 1761.3472,-274 1761.3472,-238 1858.6528,-238 1858.6528,-274"/>
<text text-anchor="middle" x="1810" y="-251.8" font-family="Times,serif" font-size="14.00" fill="#000000">RouterModule</text>
</g>
<!-- RouterModule&#45;&gt;CoreModule -->
<g id="edge15" class="edge">
<title>RouterModule&#45;&gt;CoreModule</title>
<path fill="none" stroke="#000000" d="M1810,-237.8903C1810,-228.103 1810,-218 1810,-218 1810,-218 1411,-218 1411,-218 1411,-218 1411,-208.1097 1411,-208.1097"/>
<polygon fill="#000000" stroke="#000000" points="1414.5001,-208.1096 1411,-198.1097 1407.5001,-208.1097 1414.5001,-208.1096"/>
</g>
<!-- FormsModule -->
<g id="node17" class="node">
<title>FormsModule</title>
<polygon fill="#8dd3c7" stroke="#000000" points="2548.8288,-198 2545.8288,-202 2524.8288,-202 2521.8288,-198 2453.1712,-198 2453.1712,-162 2548.8288,-162 2548.8288,-198"/>
<text text-anchor="middle" x="2501" y="-175.8" font-family="Times,serif" font-size="14.00" fill="#000000">FormsModule</text>
</g>
<!-- FormsModule&#45;&gt;SharedModule -->
<g id="edge20" class="edge">
<title>FormsModule&#45;&gt;SharedModule</title>
<path fill="none" stroke="#000000" d="M2501,-161.9737C2501,-137.0227 2501,-95 2501,-95 2501,-95 1581.2197,-95 1581.2197,-95"/>
<polygon fill="#000000" stroke="#000000" points="1581.2197,-91.5001 1571.2197,-95 1581.2196,-98.5001 1581.2197,-91.5001"/>
</g>
<!-- ReactiveFormsModule -->
<g id="node18" class="node">
<title>ReactiveFormsModule</title>
<polygon fill="#8dd3c7" stroke="#000000" points="2435.3047,-198 2432.3047,-202 2411.3047,-202 2408.3047,-198 2290.6953,-198 2290.6953,-162 2435.3047,-162 2435.3047,-198"/>
<text text-anchor="middle" x="2363" y="-175.8" font-family="Times,serif" font-size="14.00" fill="#000000">ReactiveFormsModule</text>
</g>
<!-- ReactiveFormsModule&#45;&gt;SharedModule -->
<g id="edge21" class="edge">
<title>ReactiveFormsModule&#45;&gt;SharedModule</title>
<path fill="none" stroke="#000000" d="M2363,-161.8468C2363,-138.2434 2363,-100 2363,-100 2363,-100 1581.4686,-100 1581.4686,-100"/>
<polygon fill="#000000" stroke="#000000" points="1581.4687,-96.5001 1571.4686,-100 1581.4686,-103.5001 1581.4687,-96.5001"/>
</g>
<!-- CommonModule -->
<g id="node19" class="node">
<title>CommonModule</title>
<polygon fill="#8dd3c7" stroke="#000000" points="2272.6681,-198 2269.6681,-202 2248.6681,-202 2245.6681,-198 2161.3319,-198 2161.3319,-162 2272.6681,-162 2272.6681,-198"/>
<text text-anchor="middle" x="2217" y="-175.8" font-family="Times,serif" font-size="14.00" fill="#000000">CommonModule</text>
</g>
<!-- CommonModule&#45;&gt;SharedModule -->
<g id="edge22" class="edge">
<title>CommonModule&#45;&gt;SharedModule</title>
<path fill="none" stroke="#000000" d="M2217,-161.9891C2217,-139.5148 2217,-104 2217,-104 2217,-104 1581.4255,-104 1581.4255,-104"/>
<polygon fill="#000000" stroke="#000000" points="1581.4256,-100.5001 1571.4255,-104 1581.4255,-107.5001 1581.4256,-100.5001"/>
</g>
<!-- MaterialModule -->
<g id="node20" class="node">
<title>MaterialModule</title>
<polygon fill="#8dd3c7" stroke="#000000" points="2673.4706,-198 2670.4706,-202 2649.4706,-202 2646.4706,-198 2566.5294,-198 2566.5294,-162 2673.4706,-162 2673.4706,-198"/>
<text text-anchor="middle" x="2620" y="-175.8" font-family="Times,serif" font-size="14.00" fill="#000000">MaterialModule</text>
</g>
<!-- MaterialModule&#45;&gt;SharedModule -->
<g id="edge23" class="edge">
<title>MaterialModule&#45;&gt;SharedModule</title>
<path fill="none" stroke="#000000" d="M2620,-161.9895C2620,-135.9835 2620,-91 2620,-91 2620,-91 1581.3119,-91 1581.3119,-91"/>
<polygon fill="#000000" stroke="#000000" points="1581.3119,-87.5001 1571.3119,-91 1581.3118,-94.5001 1581.3119,-87.5001"/>
</g>
</g>
</svg>
