<?xml version="1.0" encoding="UTF-8" standalone="no"?>
<!DOCTYPE svg PUBLIC "-//W3C//DTD SVG 1.1//EN"
 "http://www.w3.org/Graphics/SVG/1.1/DTD/svg11.dtd">
<!-- Generated by graphviz version 2.40.1 (20161225.0304)
 -->
<!-- Title: dependencies Pages: 1 -->
<svg width="504pt" height="284pt"
 viewBox="0.00 0.00 504.00 284.00" xmlns="http://www.w3.org/2000/svg" xmlns:xlink="http://www.w3.org/1999/xlink">
<g id="graph0" class="graph" transform="scale(1 1) rotate(0) translate(4 280)">
<title>dependencies</title>
<polygon fill="#ffffff" stroke="transparent" points="-4,4 -4,-280 500,-280 500,4 -4,4"/>
<text text-anchor="start" x="227.0091" y="-42.4" font-family="sans-serif" font-weight="bold" font-size="14.00" fill="#000000">Legend</text>
<polygon fill="#ffffb3" stroke="transparent" points="14,-10 14,-30 34,-30 34,-10 14,-10"/>
<text text-anchor="start" x="37.629" y="-15.4" font-family="sans-serif" font-size="14.00" fill="#000000"> &#160;Declarations</text>
<polygon fill="#8dd3c7" stroke="transparent" points="127,-10 127,-30 147,-30 147,-10 127,-10"/>
<text text-anchor="start" x="150.7251" y="-15.4" font-family="sans-serif" font-size="14.00" fill="#000000"> &#160;Module</text>
<polygon fill="#80b1d3" stroke="transparent" points="213,-10 213,-30 233,-30 233,-10 213,-10"/>
<text text-anchor="start" x="236.7812" y="-15.4" font-family="sans-serif" font-size="14.00" fill="#000000"> &#160;Bootstrap</text>
<polygon fill="#fdb462" stroke="transparent" points="310,-10 310,-30 330,-30 330,-10 310,-10"/>
<text text-anchor="start" x="333.6732" y="-15.4" font-family="sans-serif" font-size="14.00" fill="#000000"> &#160;Providers</text>
<polygon fill="#fb8072" stroke="transparent" points="406,-10 406,-30 426,-30 426,-10 406,-10"/>
<text text-anchor="start" x="429.7258" y="-15.4" font-family="sans-serif" font-size="14.00" fill="#000000"> &#160;Exports</text>
<g id="clust1" class="cluster">
<title>cluster_LayoutModule</title>
<polygon fill="none" stroke="#000000" stroke-dasharray="1,5" points="110,-70 110,-268 386,-268 386,-70 110,-70"/>
</g>
<g id="clust2" class="cluster">
<title>cluster_LayoutModule_declarations</title>
<polygon fill="none" stroke="#000000" points="240,-78 240,-130 378,-130 378,-78 240,-78"/>
</g>
<g id="clust4" class="cluster">
<title>cluster_LayoutModule_imports</title>
<polygon fill="none" stroke="#000000" points="118,-78 118,-130 232,-130 232,-78 118,-78"/>
</g>
<g id="clust5" class="cluster">
<title>cluster_LayoutModule_exports</title>
<polygon fill="none" stroke="#000000" points="177,-208 177,-260 319,-260 319,-208 177,-208"/>
</g>
<!-- HeaderComponent -->
<g id="node1" class="node">
<title>HeaderComponent</title>
<polygon fill="#ffffb3" stroke="#000000" points="369.7437,-122 248.2563,-122 248.2563,-86 369.7437,-86 369.7437,-122"/>
<text text-anchor="middle" x="309" y="-99.8" font-family="Times,serif" font-size="14.00" fill="#000000">HeaderComponent</text>
</g>
<!-- LayoutModule -->
<g id="node2" class="node">
<title>LayoutModule</title>
<polygon fill="#8dd3c7" stroke="#000000" points="297.7078,-187 294.7078,-191 273.7078,-191 270.7078,-187 198.2922,-187 198.2922,-151 297.7078,-151 297.7078,-187"/>
<text text-anchor="middle" x="248" y="-164.8" font-family="Times,serif" font-size="14.00" fill="#000000">LayoutModule</text>
</g>
<!-- HeaderComponent&#45;&gt;LayoutModule -->
<g id="edge1" class="edge">
<title>HeaderComponent&#45;&gt;LayoutModule</title>
<path fill="none" stroke="#000000" d="M272.866,-122.1061C272.866,-122.1061 272.866,-140.991 272.866,-140.991"/>
<polygon fill="#000000" stroke="#000000" points="269.3661,-140.9909 272.866,-150.991 276.3661,-140.991 269.3661,-140.9909"/>
</g>
<!-- HeaderComponent  -->
<g id="node4" class="node">
<title>HeaderComponent </title>
<polygon fill="#fb8072" stroke="#000000" points="310.7436,-252 185.2564,-252 185.2564,-216 310.7436,-216 310.7436,-252"/>
<text text-anchor="middle" x="248" y="-229.8" font-family="Times,serif" font-size="14.00" fill="#000000">HeaderComponent </text>
</g>
<!-- LayoutModule&#45;&gt;HeaderComponent  -->
<g id="edge3" class="edge">
<title>LayoutModule&#45;&gt;HeaderComponent </title>
<path fill="none" stroke="#000000" stroke-dasharray="5,2" d="M248,-187.1061C248,-187.1061 248,-205.991 248,-205.991"/>
<polygon fill="#000000" stroke="#000000" points="244.5001,-205.9909 248,-215.991 251.5001,-205.991 244.5001,-205.9909"/>
</g>
<!-- SharedModule -->
<g id="node3" class="node">
<title>SharedModule</title>
<polygon fill="#8dd3c7" stroke="#000000" points="224.4231,-122 221.4231,-126 200.4231,-126 197.4231,-122 125.5769,-122 125.5769,-86 224.4231,-86 224.4231,-122"/>
<text text-anchor="middle" x="175" y="-99.8" font-family="Times,serif" font-size="14.00" fill="#000000">SharedModule</text>
</g>
<!-- SharedModule&#45;&gt;LayoutModule -->
<g id="edge2" class="edge">
<title>SharedModule&#45;&gt;LayoutModule</title>
<path fill="none" stroke="#000000" d="M211.3037,-122.1061C211.3037,-122.1061 211.3037,-140.991 211.3037,-140.991"/>
<polygon fill="#000000" stroke="#000000" points="207.8037,-140.9909 211.3037,-150.991 214.8037,-140.991 207.8037,-140.9909"/>
</g>
</g>
</svg>
