<?xml version="1.0" encoding="UTF-8" standalone="no"?>
<!DOCTYPE svg PUBLIC "-//W3C//DTD SVG 1.1//EN"
 "http://www.w3.org/Graphics/SVG/1.1/DTD/svg11.dtd">
<!-- Generated by graphviz version 2.40.1 (20161225.0304)
 -->
<!-- Title: dependencies Pages: 1 -->
<svg width="1857pt" height="284pt"
 viewBox="0.00 0.00 1857.00 284.00" xmlns="http://www.w3.org/2000/svg" xmlns:xlink="http://www.w3.org/1999/xlink">
<g id="graph0" class="graph" transform="scale(1 1) rotate(0) translate(4 280)">
<title>dependencies</title>
<polygon fill="#ffffff" stroke="transparent" points="-4,4 -4,-280 1853,-280 1853,4 -4,4"/>
<text text-anchor="start" x="903.5091" y="-42.4" font-family="sans-serif" font-weight="bold" font-size="14.00" fill="#000000">Legend</text>
<polygon fill="#ffffb3" stroke="transparent" points="690.5,-10 690.5,-30 710.5,-30 710.5,-10 690.5,-10"/>
<text text-anchor="start" x="714.129" y="-15.4" font-family="sans-serif" font-size="14.00" fill="#000000"> &#160;Declarations</text>
<polygon fill="#8dd3c7" stroke="transparent" points="803.5,-10 803.5,-30 823.5,-30 823.5,-10 803.5,-10"/>
<text text-anchor="start" x="827.2251" y="-15.4" font-family="sans-serif" font-size="14.00" fill="#000000"> &#160;Module</text>
<polygon fill="#80b1d3" stroke="transparent" points="889.5,-10 889.5,-30 909.5,-30 909.5,-10 889.5,-10"/>
<text text-anchor="start" x="913.2812" y="-15.4" font-family="sans-serif" font-size="14.00" fill="#000000"> &#160;Bootstrap</text>
<polygon fill="#fdb462" stroke="transparent" points="986.5,-10 986.5,-30 1006.5,-30 1006.5,-10 986.5,-10"/>
<text text-anchor="start" x="1010.1732" y="-15.4" font-family="sans-serif" font-size="14.00" fill="#000000"> &#160;Providers</text>
<polygon fill="#fb8072" stroke="transparent" points="1082.5,-10 1082.5,-30 1102.5,-30 1102.5,-10 1082.5,-10"/>
<text text-anchor="start" x="1106.2258" y="-15.4" font-family="sans-serif" font-size="14.00" fill="#000000"> &#160;Exports</text>
<g id="clust1" class="cluster">
<title>cluster_AppModule</title>
<polygon fill="none" stroke="#000000" stroke-dasharray="1,5" points="8,-70 8,-268 1841,-268 1841,-70 8,-70"/>
</g>
<g id="clust2" class="cluster">
<title>cluster_AppModule_declarations</title>
<polygon fill="none" stroke="#000000" points="1711,-78 1711,-130 1833,-130 1833,-78 1711,-78"/>
</g>
<g id="clust4" class="cluster">
<title>cluster_AppModule_imports</title>
<polygon fill="none" stroke="#000000" points="16,-78 16,-130 1703,-130 1703,-78 16,-78"/>
</g>
<g id="clust6" class="cluster">
<title>cluster_AppModule_bootstrap</title>
<polygon fill="none" stroke="#000000" points="831,-208 831,-260 955,-260 955,-208 831,-208"/>
</g>
<!-- AppComponent -->
<g id="node1" class="node">
<title>AppComponent</title>
<polygon fill="#ffffb3" stroke="#000000" points="1824.9399,-122 1719.0601,-122 1719.0601,-86 1824.9399,-86 1824.9399,-122"/>
<text text-anchor="middle" x="1772" y="-99.8" font-family="Times,serif" font-size="14.00" fill="#000000">AppComponent</text>
</g>
<!-- AppModule -->
<g id="node2" class="node">
<title>AppModule</title>
<polygon fill="#8dd3c7" stroke="#000000" points="934.6571,-187 931.6571,-191 910.6571,-191 907.6571,-187 851.3429,-187 851.3429,-151 934.6571,-151 934.6571,-187"/>
<text text-anchor="middle" x="893" y="-164.8" font-family="Times,serif" font-size="14.00" fill="#000000">AppModule</text>
</g>
<!-- AppComponent&#45;&gt;AppModule -->
<g id="edge1" class="edge">
<title>AppComponent&#45;&gt;AppModule</title>
<path fill="none" stroke="#000000" d="M1772,-122.2479C1772,-145.0179 1772,-181 1772,-181 1772,-181 944.8047,-181 944.8047,-181"/>
<polygon fill="#000000" stroke="#000000" points="944.8047,-177.5001 934.8047,-181 944.8046,-184.5001 944.8047,-177.5001"/>
</g>
<!-- AppComponent  -->
<g id="node14" class="node">
<title>AppComponent </title>
<polygon fill="#80b1d3" stroke="#000000" points="947.439,-252 838.561,-252 838.561,-216 947.439,-216 947.439,-252"/>
<text text-anchor="middle" x="893" y="-229.8" font-family="Times,serif" font-size="14.00" fill="#000000">AppComponent </text>
</g>
<!-- AppModule&#45;&gt;AppComponent  -->
<g id="edge13" class="edge">
<title>AppModule&#45;&gt;AppComponent </title>
<path fill="none" stroke="#000000" stroke-dasharray="1,5" d="M893,-187.1061C893,-187.1061 893,-205.991 893,-205.991"/>
<polygon fill="#000000" stroke="#000000" points="889.5001,-205.9909 893,-215.991 896.5001,-205.991 889.5001,-205.9909"/>
</g>
<!-- BrowserModule -->
<g id="node3" class="node">
<title>BrowserModule</title>
<polygon fill="#8dd3c7" stroke="#000000" points="1695.4734,-122 1692.4734,-126 1671.4734,-126 1668.4734,-122 1588.5266,-122 1588.5266,-86 1695.4734,-86 1695.4734,-122"/>
<text text-anchor="middle" x="1642" y="-99.8" font-family="Times,serif" font-size="14.00" fill="#000000">BrowserModule</text>
</g>
<!-- BrowserModule&#45;&gt;AppModule -->
<g id="edge2" class="edge">
<title>BrowserModule&#45;&gt;AppModule</title>
<path fill="none" stroke="#000000" d="M1642,-122.2843C1642,-143.3211 1642,-175 1642,-175 1642,-175 944.8744,-175 944.8744,-175"/>
<polygon fill="#000000" stroke="#000000" points="944.8745,-171.5001 934.8744,-175 944.8744,-178.5001 944.8745,-171.5001"/>
</g>
<!-- BrowserAnimationsModule -->
<g id="node4" class="node">
<title>BrowserAnimationsModule</title>
<polygon fill="#8dd3c7" stroke="#000000" points="1570.3019,-122 1567.3019,-126 1546.3019,-126 1543.3019,-122 1397.6981,-122 1397.6981,-86 1570.3019,-86 1570.3019,-122"/>
<text text-anchor="middle" x="1484" y="-99.8" font-family="Times,serif" font-size="14.00" fill="#000000">BrowserAnimationsModule</text>
</g>
<!-- BrowserAnimationsModule&#45;&gt;AppModule -->
<g id="edge3" class="edge">
<title>BrowserAnimationsModule&#45;&gt;AppModule</title>
<path fill="none" stroke="#000000" d="M1484,-122.1061C1484,-141.3391 1484,-169 1484,-169 1484,-169 945.0295,-169 945.0295,-169"/>
<polygon fill="#000000" stroke="#000000" points="945.0295,-165.5001 935.0295,-169 945.0294,-172.5001 945.0295,-165.5001"/>
</g>
<!-- HttpModule -->
<g id="node5" class="node">
<title>HttpModule</title>
<polygon fill="#8dd3c7" stroke="#000000" points="1380.4387,-122 1377.4387,-126 1356.4387,-126 1353.4387,-122 1295.5613,-122 1295.5613,-86 1380.4387,-86 1380.4387,-122"/>
<text text-anchor="middle" x="1338" y="-99.8" font-family="Times,serif" font-size="14.00" fill="#000000">HttpModule</text>
</g>
<!-- HttpModule&#45;&gt;AppModule -->
<g id="edge4" class="edge">
<title>HttpModule&#45;&gt;AppModule</title>
<path fill="none" stroke="#000000" d="M1338,-122.0225C1338,-139.3734 1338,-163 1338,-163 1338,-163 944.8645,-163 944.8645,-163"/>
<polygon fill="#000000" stroke="#000000" points="944.8646,-159.5001 934.8645,-163 944.8645,-166.5001 944.8646,-159.5001"/>
</g>
<!-- RouterModule.forRoot(args) -->
<g id="node6" class="node">
<title>RouterModule.forRoot(args)</title>
<polygon fill="#8dd3c7" stroke="#000000" points="1277.8419,-122 1274.8419,-126 1253.8419,-126 1250.8419,-122 1100.1581,-122 1100.1581,-86 1277.8419,-86 1277.8419,-122"/>
<text text-anchor="middle" x="1189" y="-99.8" font-family="Times,serif" font-size="14.00" fill="#000000">RouterModule.forRoot(args)</text>
</g>
<!-- RouterModule.forRoot(args)&#45;&gt;AppModule -->
<g id="edge5" class="edge">
<title>RouterModule.forRoot(args)&#45;&gt;AppModule</title>
<path fill="none" stroke="#000000" d="M1189,-122.2396C1189,-137.5706 1189,-157 1189,-157 1189,-157 944.7818,-157 944.7818,-157"/>
<polygon fill="#000000" stroke="#000000" points="944.7818,-153.5001 934.7818,-157 944.7817,-160.5001 944.7818,-153.5001"/>
</g>
<!-- StoreModule.forRoot(args) -->
<g id="node7" class="node">
<title>StoreModule.forRoot(args)</title>
<polygon fill="#8dd3c7" stroke="#000000" points="1082.2877,-122 1079.2877,-126 1058.2877,-126 1055.2877,-122 913.7123,-122 913.7123,-86 1082.2877,-86 1082.2877,-122"/>
<text text-anchor="middle" x="998" y="-99.8" font-family="Times,serif" font-size="14.00" fill="#000000">StoreModule.forRoot(args)</text>
</g>
<!-- StoreModule.forRoot(args)&#45;&gt;AppModule -->
<g id="edge6" class="edge">
<title>StoreModule.forRoot(args)&#45;&gt;AppModule</title>
<path fill="none" stroke="#000000" d="M924.2172,-122.1061C924.2172,-122.1061 924.2172,-140.991 924.2172,-140.991"/>
<polygon fill="#000000" stroke="#000000" points="920.7173,-140.9909 924.2172,-150.991 927.7173,-140.991 920.7173,-140.9909"/>
</g>
<!-- StoreDevtoolsModule.instrument() -->
<g id="node8" class="node">
<title>StoreDevtoolsModule.instrument()</title>
<polygon fill="#8dd3c7" stroke="#000000" points="895.3489,-122 892.3489,-126 871.3489,-126 868.3489,-122 682.6511,-122 682.6511,-86 895.3489,-86 895.3489,-122"/>
<text text-anchor="middle" x="789" y="-99.8" font-family="Times,serif" font-size="14.00" fill="#000000">StoreDevtoolsModule.instrument()</text>
</g>
<!-- StoreDevtoolsModule.instrument()&#45;&gt;AppModule -->
<g id="edge7" class="edge">
<title>StoreDevtoolsModule.instrument()&#45;&gt;AppModule</title>
<path fill="none" stroke="#000000" d="M873.1731,-122.1061C873.1731,-122.1061 873.1731,-140.991 873.1731,-140.991"/>
<polygon fill="#000000" stroke="#000000" points="869.6731,-140.9909 873.1731,-150.991 876.6731,-140.991 869.6731,-140.9909"/>
</g>
<!-- EffectsModule.forRoot(args) -->
<g id="node9" class="node">
<title>EffectsModule.forRoot(args)</title>
<polygon fill="#8dd3c7" stroke="#000000" points="664.3774,-122 661.3774,-126 640.3774,-126 637.3774,-122 485.6226,-122 485.6226,-86 664.3774,-86 664.3774,-122"/>
<text text-anchor="middle" x="575" y="-99.8" font-family="Times,serif" font-size="14.00" fill="#000000">EffectsModule.forRoot(args)</text>
</g>
<!-- EffectsModule.forRoot(args)&#45;&gt;AppModule -->
<g id="edge8" class="edge">
<title>EffectsModule.forRoot(args)&#45;&gt;AppModule</title>
<path fill="none" stroke="#000000" d="M575,-122.2396C575,-137.5706 575,-157 575,-157 575,-157 841.1001,-157 841.1001,-157"/>
<polygon fill="#000000" stroke="#000000" points="841.1001,-160.5001 851.1001,-157 841.1,-153.5001 841.1001,-160.5001"/>
</g>
<!-- CategoryModule -->
<g id="node10" class="node">
<title>CategoryModule</title>
<polygon fill="#8dd3c7" stroke="#000000" points="467.3669,-122 464.3669,-126 443.3669,-126 440.3669,-122 356.6331,-122 356.6331,-86 467.3669,-86 467.3669,-122"/>
<text text-anchor="middle" x="412" y="-99.8" font-family="Times,serif" font-size="14.00" fill="#000000">CategoryModule</text>
</g>
<!-- CategoryModule&#45;&gt;AppModule -->
<g id="edge9" class="edge">
<title>CategoryModule&#45;&gt;AppModule</title>
<path fill="none" stroke="#000000" d="M412,-122.0225C412,-139.3734 412,-163 412,-163 412,-163 841.1558,-163 841.1558,-163"/>
<polygon fill="#000000" stroke="#000000" points="841.1559,-166.5001 851.1558,-163 841.1558,-159.5001 841.1559,-166.5001"/>
</g>
<!-- CoreModule -->
<g id="node11" class="node">
<title>CoreModule</title>
<polygon fill="#8dd3c7" stroke="#000000" points="338.2619,-122 335.2619,-126 314.2619,-126 311.2619,-122 251.7381,-122 251.7381,-86 338.2619,-86 338.2619,-122"/>
<text text-anchor="middle" x="295" y="-99.8" font-family="Times,serif" font-size="14.00" fill="#000000">CoreModule</text>
</g>
<!-- CoreModule&#45;&gt;AppModule -->
<g id="edge10" class="edge">
<title>CoreModule&#45;&gt;AppModule</title>
<path fill="none" stroke="#000000" d="M295,-122.1061C295,-141.3391 295,-169 295,-169 295,-169 840.9498,-169 840.9498,-169"/>
<polygon fill="#000000" stroke="#000000" points="840.9498,-172.5001 850.9498,-169 840.9498,-165.5001 840.9498,-172.5001"/>
</g>
<!-- HomeModule -->
<g id="node12" class="node">
<title>HomeModule</title>
<polygon fill="#8dd3c7" stroke="#000000" points="233.7619,-122 230.7619,-126 209.7619,-126 206.7619,-122 140.2381,-122 140.2381,-86 233.7619,-86 233.7619,-122"/>
<text text-anchor="middle" x="187" y="-99.8" font-family="Times,serif" font-size="14.00" fill="#000000">HomeModule</text>
</g>
<!-- HomeModule&#45;&gt;AppModule -->
<g id="edge11" class="edge">
<title>HomeModule&#45;&gt;AppModule</title>
<path fill="none" stroke="#000000" d="M187,-122.2843C187,-143.3211 187,-175 187,-175 187,-175 841.2119,-175 841.2119,-175"/>
<polygon fill="#000000" stroke="#000000" points="841.2119,-178.5001 851.2119,-175 841.2118,-171.5001 841.2119,-178.5001"/>
</g>
<!-- SharedModule -->
<g id="node13" class="node">
<title>SharedModule</title>
<polygon fill="#8dd3c7" stroke="#000000" points="122.4231,-122 119.4231,-126 98.4231,-126 95.4231,-122 23.5769,-122 23.5769,-86 122.4231,-86 122.4231,-122"/>
<text text-anchor="middle" x="73" y="-99.8" font-family="Times,serif" font-size="14.00" fill="#000000">SharedModule</text>
</g>
<!-- SharedModule&#45;&gt;AppModule -->
<g id="edge12" class="edge">
<title>SharedModule&#45;&gt;AppModule</title>
<path fill="none" stroke="#000000" d="M73,-122.2479C73,-145.0179 73,-181 73,-181 73,-181 841.2087,-181 841.2087,-181"/>
<polygon fill="#000000" stroke="#000000" points="841.2088,-184.5001 851.2087,-181 841.2087,-177.5001 841.2088,-184.5001"/>
</g>
</g>
</svg>
