<?xml version="1.0" encoding="UTF-8" standalone="no"?>
<!DOCTYPE svg PUBLIC "-//W3C//DTD SVG 1.1//EN"
 "http://www.w3.org/Graphics/SVG/1.1/DTD/svg11.dtd">
<!-- Generated by graphviz version 2.40.1 (20161225.0304)
 -->
<!-- Title: dependencies Pages: 1 -->
<svg width="1863pt" height="284pt"
 viewBox="0.00 0.00 1863.00 284.00" xmlns="http://www.w3.org/2000/svg" xmlns:xlink="http://www.w3.org/1999/xlink">
<g id="graph0" class="graph" transform="scale(1 1) rotate(0) translate(4 280)">
<title>dependencies</title>
<polygon fill="#ffffff" stroke="transparent" points="-4,4 -4,-280 1859,-280 1859,4 -4,4"/>
<text text-anchor="start" x="906.5091" y="-42.4" font-family="sans-serif" font-weight="bold" font-size="14.00" fill="#000000">Legend</text>
<polygon fill="#ffffb3" stroke="transparent" points="693.5,-10 693.5,-30 713.5,-30 713.5,-10 693.5,-10"/>
<text text-anchor="start" x="717.129" y="-15.4" font-family="sans-serif" font-size="14.00" fill="#000000"> &#160;Declarations</text>
<polygon fill="#8dd3c7" stroke="transparent" points="806.5,-10 806.5,-30 826.5,-30 826.5,-10 806.5,-10"/>
<text text-anchor="start" x="830.2251" y="-15.4" font-family="sans-serif" font-size="14.00" fill="#000000"> &#160;Module</text>
<polygon fill="#80b1d3" stroke="transparent" points="892.5,-10 892.5,-30 912.5,-30 912.5,-10 892.5,-10"/>
<text text-anchor="start" x="916.2812" y="-15.4" font-family="sans-serif" font-size="14.00" fill="#000000"> &#160;Bootstrap</text>
<polygon fill="#fdb462" stroke="transparent" points="989.5,-10 989.5,-30 1009.5,-30 1009.5,-10 989.5,-10"/>
<text text-anchor="start" x="1013.1732" y="-15.4" font-family="sans-serif" font-size="14.00" fill="#000000"> &#160;Providers</text>
<polygon fill="#fb8072" stroke="transparent" points="1085.5,-10 1085.5,-30 1105.5,-30 1105.5,-10 1085.5,-10"/>
<text text-anchor="start" x="1109.2258" y="-15.4" font-family="sans-serif" font-size="14.00" fill="#000000"> &#160;Exports</text>
<g id="clust1" class="cluster">
<title>cluster_AppModule</title>
<polygon fill="none" stroke="#000000" stroke-dasharray="1,5" points="8,-70 8,-268 1847,-268 1847,-70 8,-70"/>
</g>
<g id="clust2" class="cluster">
<title>cluster_AppModule_declarations</title>
<polygon fill="none" stroke="#000000" points="1717,-78 1717,-130 1839,-130 1839,-78 1717,-78"/>
</g>
<g id="clust4" class="cluster">
<title>cluster_AppModule_imports</title>
<polygon fill="none" stroke="#000000" points="16,-78 16,-130 1709,-130 1709,-78 16,-78"/>
</g>
<g id="clust6" class="cluster">
<title>cluster_AppModule_bootstrap</title>
<polygon fill="none" stroke="#000000" points="856,-208 856,-260 980,-260 980,-208 856,-208"/>
</g>
<!-- AppComponent -->
<g id="node1" class="node">
<title>AppComponent</title>
<polygon fill="#ffffb3" stroke="#000000" points="1830.9399,-122 1725.0601,-122 1725.0601,-86 1830.9399,-86 1830.9399,-122"/>
<text text-anchor="middle" x="1778" y="-99.8" font-family="Times,serif" font-size="14.00" fill="#000000">AppComponent</text>
</g>
<!-- AppModule -->
<g id="node2" class="node">
<title>AppModule</title>
<polygon fill="#8dd3c7" stroke="#000000" points="959.6571,-187 956.6571,-191 935.6571,-191 932.6571,-187 876.3429,-187 876.3429,-151 959.6571,-151 959.6571,-187"/>
<text text-anchor="middle" x="918" y="-164.8" font-family="Times,serif" font-size="14.00" fill="#000000">AppModule</text>
</g>
<!-- AppComponent&#45;&gt;AppModule -->
<g id="edge1" class="edge">
<title>AppComponent&#45;&gt;AppModule</title>
<path fill="none" stroke="#000000" d="M1778,-122.0908C1778,-145.1328 1778,-182 1778,-182 1778,-182 969.7702,-182 969.7702,-182"/>
<polygon fill="#000000" stroke="#000000" points="969.7703,-178.5001 959.7702,-182 969.7702,-185.5001 969.7703,-178.5001"/>
</g>
<!-- AppComponent  -->
<g id="node15" class="node">
<title>AppComponent </title>
<polygon fill="#80b1d3" stroke="#000000" points="972.439,-252 863.561,-252 863.561,-216 972.439,-216 972.439,-252"/>
<text text-anchor="middle" x="918" y="-229.8" font-family="Times,serif" font-size="14.00" fill="#000000">AppComponent </text>
</g>
<!-- AppModule&#45;&gt;AppComponent  -->
<g id="edge14" class="edge">
<title>AppModule&#45;&gt;AppComponent </title>
<path fill="none" stroke="#000000" stroke-dasharray="1,5" d="M918,-187.1061C918,-187.1061 918,-205.991 918,-205.991"/>
<polygon fill="#000000" stroke="#000000" points="914.5001,-205.9909 918,-215.991 921.5001,-205.991 914.5001,-205.9909"/>
</g>
<!-- BrowserModule -->
<g id="node3" class="node">
<title>BrowserModule</title>
<polygon fill="#8dd3c7" stroke="#000000" points="1701.4734,-122 1698.4734,-126 1677.4734,-126 1674.4734,-122 1594.5266,-122 1594.5266,-86 1701.4734,-86 1701.4734,-122"/>
<text text-anchor="middle" x="1648" y="-99.8" font-family="Times,serif" font-size="14.00" fill="#000000">BrowserModule</text>
</g>
<!-- BrowserModule&#45;&gt;AppModule -->
<g id="edge2" class="edge">
<title>BrowserModule&#45;&gt;AppModule</title>
<path fill="none" stroke="#000000" d="M1648,-122.0449C1648,-143.6623 1648,-177 1648,-177 1648,-177 969.8699,-177 969.8699,-177"/>
<polygon fill="#000000" stroke="#000000" points="969.8699,-173.5001 959.8699,-177 969.8699,-180.5001 969.8699,-173.5001"/>
</g>
<!-- HttpModule -->
<g id="node4" class="node">
<title>HttpModule</title>
<polygon fill="#8dd3c7" stroke="#000000" points="1576.4387,-122 1573.4387,-126 1552.4387,-126 1549.4387,-122 1491.5613,-122 1491.5613,-86 1576.4387,-86 1576.4387,-122"/>
<text text-anchor="middle" x="1534" y="-99.8" font-family="Times,serif" font-size="14.00" fill="#000000">HttpModule</text>
</g>
<!-- HttpModule&#45;&gt;AppModule -->
<g id="edge3" class="edge">
<title>HttpModule&#45;&gt;AppModule</title>
<path fill="none" stroke="#000000" d="M1534,-122.2228C1534,-142.3652 1534,-172 1534,-172 1534,-172 969.8559,-172 969.8559,-172"/>
<polygon fill="#000000" stroke="#000000" points="969.8559,-168.5001 959.8559,-172 969.8559,-175.5001 969.8559,-168.5001"/>
</g>
<!-- FormsModule -->
<g id="node5" class="node">
<title>FormsModule</title>
<polygon fill="#8dd3c7" stroke="#000000" points="1473.8288,-122 1470.8288,-126 1449.8288,-126 1446.8288,-122 1378.1712,-122 1378.1712,-86 1473.8288,-86 1473.8288,-122"/>
<text text-anchor="middle" x="1426" y="-99.8" font-family="Times,serif" font-size="14.00" fill="#000000">FormsModule</text>
</g>
<!-- FormsModule&#45;&gt;AppModule -->
<g id="edge4" class="edge">
<title>FormsModule&#45;&gt;AppModule</title>
<path fill="none" stroke="#000000" d="M1426,-122.2222C1426,-140.8285 1426,-167 1426,-167 1426,-167 970.004,-167 970.004,-167"/>
<polygon fill="#000000" stroke="#000000" points="970.004,-163.5001 960.004,-167 970.0039,-170.5001 970.004,-163.5001"/>
</g>
<!-- ReactiveFormsModule -->
<g id="node6" class="node">
<title>ReactiveFormsModule</title>
<polygon fill="#8dd3c7" stroke="#000000" points="1360.3047,-122 1357.3047,-126 1336.3047,-126 1333.3047,-122 1215.6953,-122 1215.6953,-86 1360.3047,-86 1360.3047,-122"/>
<text text-anchor="middle" x="1288" y="-99.8" font-family="Times,serif" font-size="14.00" fill="#000000">ReactiveFormsModule</text>
</g>
<!-- ReactiveFormsModule&#45;&gt;AppModule -->
<g id="edge5" class="edge">
<title>ReactiveFormsModule&#45;&gt;AppModule</title>
<path fill="none" stroke="#000000" d="M1288,-122.0336C1288,-139.0597 1288,-162 1288,-162 1288,-162 969.7245,-162 969.7245,-162"/>
<polygon fill="#000000" stroke="#000000" points="969.7245,-158.5001 959.7245,-162 969.7244,-165.5001 969.7245,-158.5001"/>
</g>
<!-- RouterModule.forRoot(args) -->
<g id="node7" class="node">
<title>RouterModule.forRoot(args)</title>
<polygon fill="#8dd3c7" stroke="#000000" points="1197.8419,-122 1194.8419,-126 1173.8419,-126 1170.8419,-122 1020.1581,-122 1020.1581,-86 1197.8419,-86 1197.8419,-122"/>
<text text-anchor="middle" x="1109" y="-99.8" font-family="Times,serif" font-size="14.00" fill="#000000">RouterModule.forRoot(args)</text>
</g>
<!-- RouterModule.forRoot(args)&#45;&gt;AppModule -->
<g id="edge6" class="edge">
<title>RouterModule.forRoot(args)&#45;&gt;AppModule</title>
<path fill="none" stroke="#000000" d="M1109,-122.2396C1109,-137.5706 1109,-157 1109,-157 1109,-157 969.9158,-157 969.9158,-157"/>
<polygon fill="#000000" stroke="#000000" points="969.9158,-153.5001 959.9158,-157 969.9157,-160.5001 969.9158,-153.5001"/>
</g>
<!-- StoreModule.forRoot(args) -->
<g id="node8" class="node">
<title>StoreModule.forRoot(args)</title>
<polygon fill="#8dd3c7" stroke="#000000" points="1002.2877,-122 999.2877,-126 978.2877,-126 975.2877,-122 833.7123,-122 833.7123,-86 1002.2877,-86 1002.2877,-122"/>
<text text-anchor="middle" x="918" y="-99.8" font-family="Times,serif" font-size="14.00" fill="#000000">StoreModule.forRoot(args)</text>
</g>
<!-- StoreModule.forRoot(args)&#45;&gt;AppModule -->
<g id="edge7" class="edge">
<title>StoreModule.forRoot(args)&#45;&gt;AppModule</title>
<path fill="none" stroke="#000000" d="M918,-122.1061C918,-122.1061 918,-140.991 918,-140.991"/>
<polygon fill="#000000" stroke="#000000" points="914.5001,-140.9909 918,-150.991 921.5001,-140.991 914.5001,-140.9909"/>
</g>
<!-- StoreDevtoolsModule.instrument() -->
<g id="node9" class="node">
<title>StoreDevtoolsModule.instrument()</title>
<polygon fill="#8dd3c7" stroke="#000000" points="815.3489,-122 812.3489,-126 791.3489,-126 788.3489,-122 602.6511,-122 602.6511,-86 815.3489,-86 815.3489,-122"/>
<text text-anchor="middle" x="709" y="-99.8" font-family="Times,serif" font-size="14.00" fill="#000000">StoreDevtoolsModule.instrument()</text>
</g>
<!-- StoreDevtoolsModule.instrument()&#45;&gt;AppModule -->
<g id="edge8" class="edge">
<title>StoreDevtoolsModule.instrument()&#45;&gt;AppModule</title>
<path fill="none" stroke="#000000" d="M709,-122.2396C709,-137.5706 709,-157 709,-157 709,-157 866.208,-157 866.208,-157"/>
<polygon fill="#000000" stroke="#000000" points="866.2081,-160.5001 876.208,-157 866.208,-153.5001 866.2081,-160.5001"/>
</g>
<!-- CategoryModule -->
<g id="node10" class="node">
<title>CategoryModule</title>
<polygon fill="#8dd3c7" stroke="#000000" points="584.3669,-122 581.3669,-126 560.3669,-126 557.3669,-122 473.6331,-122 473.6331,-86 584.3669,-86 584.3669,-122"/>
<text text-anchor="middle" x="529" y="-99.8" font-family="Times,serif" font-size="14.00" fill="#000000">CategoryModule</text>
</g>
<!-- CategoryModule&#45;&gt;AppModule -->
<g id="edge9" class="edge">
<title>CategoryModule&#45;&gt;AppModule</title>
<path fill="none" stroke="#000000" d="M529,-122.0336C529,-139.0597 529,-162 529,-162 529,-162 866.0006,-162 866.0006,-162"/>
<polygon fill="#000000" stroke="#000000" points="866.0006,-165.5001 876.0006,-162 866.0006,-158.5001 866.0006,-165.5001"/>
</g>
<!-- CoreModule -->
<g id="node11" class="node">
<title>CoreModule</title>
<polygon fill="#8dd3c7" stroke="#000000" points="455.2619,-122 452.2619,-126 431.2619,-126 428.2619,-122 368.7381,-122 368.7381,-86 455.2619,-86 455.2619,-122"/>
<text text-anchor="middle" x="412" y="-99.8" font-family="Times,serif" font-size="14.00" fill="#000000">CoreModule</text>
</g>
<!-- CoreModule&#45;&gt;AppModule -->
<g id="edge10" class="edge">
<title>CoreModule&#45;&gt;AppModule</title>
<path fill="none" stroke="#000000" d="M412,-122.2222C412,-140.8285 412,-167 412,-167 412,-167 866.1614,-167 866.1614,-167"/>
<polygon fill="#000000" stroke="#000000" points="866.1614,-170.5001 876.1614,-167 866.1614,-163.5001 866.1614,-170.5001"/>
</g>
<!-- HomeModule -->
<g id="node12" class="node">
<title>HomeModule</title>
<polygon fill="#8dd3c7" stroke="#000000" points="350.7619,-122 347.7619,-126 326.7619,-126 323.7619,-122 257.2381,-122 257.2381,-86 350.7619,-86 350.7619,-122"/>
<text text-anchor="middle" x="304" y="-99.8" font-family="Times,serif" font-size="14.00" fill="#000000">HomeModule</text>
</g>
<!-- HomeModule&#45;&gt;AppModule -->
<g id="edge11" class="edge">
<title>HomeModule&#45;&gt;AppModule</title>
<path fill="none" stroke="#000000" d="M304,-122.2228C304,-142.3652 304,-172 304,-172 304,-172 866.28,-172 866.28,-172"/>
<polygon fill="#000000" stroke="#000000" points="866.28,-175.5001 876.28,-172 866.28,-168.5001 866.28,-175.5001"/>
</g>
<!-- LayoutModule -->
<g id="node13" class="node">
<title>LayoutModule</title>
<polygon fill="#8dd3c7" stroke="#000000" points="239.7078,-122 236.7078,-126 215.7078,-126 212.7078,-122 140.2922,-122 140.2922,-86 239.7078,-86 239.7078,-122"/>
<text text-anchor="middle" x="190" y="-99.8" font-family="Times,serif" font-size="14.00" fill="#000000">LayoutModule</text>
</g>
<!-- LayoutModule&#45;&gt;AppModule -->
<g id="edge12" class="edge">
<title>LayoutModule&#45;&gt;AppModule</title>
<path fill="none" stroke="#000000" d="M190,-122.0449C190,-143.6623 190,-177 190,-177 190,-177 866.2448,-177 866.2448,-177"/>
<polygon fill="#000000" stroke="#000000" points="866.2448,-180.5001 876.2448,-177 866.2448,-173.5001 866.2448,-180.5001"/>
</g>
<!-- SharedModule -->
<g id="node14" class="node">
<title>SharedModule</title>
<polygon fill="#8dd3c7" stroke="#000000" points="122.4231,-122 119.4231,-126 98.4231,-126 95.4231,-122 23.5769,-122 23.5769,-86 122.4231,-86 122.4231,-122"/>
<text text-anchor="middle" x="73" y="-99.8" font-family="Times,serif" font-size="14.00" fill="#000000">SharedModule</text>
</g>
<!-- SharedModule&#45;&gt;AppModule -->
<g id="edge13" class="edge">
<title>SharedModule&#45;&gt;AppModule</title>
<path fill="none" stroke="#000000" d="M73,-122.0908C73,-145.1328 73,-182 73,-182 73,-182 866.0963,-182 866.0963,-182"/>
<polygon fill="#000000" stroke="#000000" points="866.0964,-185.5001 876.0963,-182 866.0963,-178.5001 866.0964,-185.5001"/>
</g>
</g>
</svg>
