<?xml version="1.0" encoding="UTF-8" standalone="no"?>
<!DOCTYPE svg PUBLIC "-//W3C//DTD SVG 1.1//EN"
 "http://www.w3.org/Graphics/SVG/1.1/DTD/svg11.dtd">
<!-- Generated by graphviz version 2.40.1 (20161225.0304)
 -->
<!-- Title: dependencies Pages: 1 -->
<svg width="1660pt" height="284pt"
 viewBox="0.00 0.00 1660.00 284.00" xmlns="http://www.w3.org/2000/svg" xmlns:xlink="http://www.w3.org/1999/xlink">
<g id="graph0" class="graph" transform="scale(1 1) rotate(0) translate(4 280)">
<title>dependencies</title>
<polygon fill="#ffffff" stroke="transparent" points="-4,4 -4,-280 1656,-280 1656,4 -4,4"/>
<text text-anchor="start" x="805.0091" y="-42.4" font-family="sans-serif" font-weight="bold" font-size="14.00" fill="#000000">Legend</text>
<polygon fill="#ffffb3" stroke="transparent" points="592,-10 592,-30 612,-30 612,-10 592,-10"/>
<text text-anchor="start" x="615.629" y="-15.4" font-family="sans-serif" font-size="14.00" fill="#000000"> &#160;Declarations</text>
<polygon fill="#8dd3c7" stroke="transparent" points="705,-10 705,-30 725,-30 725,-10 705,-10"/>
<text text-anchor="start" x="728.7251" y="-15.4" font-family="sans-serif" font-size="14.00" fill="#000000"> &#160;Module</text>
<polygon fill="#80b1d3" stroke="transparent" points="791,-10 791,-30 811,-30 811,-10 791,-10"/>
<text text-anchor="start" x="814.7812" y="-15.4" font-family="sans-serif" font-size="14.00" fill="#000000"> &#160;Bootstrap</text>
<polygon fill="#fdb462" stroke="transparent" points="888,-10 888,-30 908,-30 908,-10 888,-10"/>
<text text-anchor="start" x="911.6732" y="-15.4" font-family="sans-serif" font-size="14.00" fill="#000000"> &#160;Providers</text>
<polygon fill="#fb8072" stroke="transparent" points="984,-10 984,-30 1004,-30 1004,-10 984,-10"/>
<text text-anchor="start" x="1007.7258" y="-15.4" font-family="sans-serif" font-size="14.00" fill="#000000"> &#160;Exports</text>
<g id="clust1" class="cluster">
<title>cluster_AppModule</title>
<polygon fill="none" stroke="#000000" stroke-dasharray="1,5" points="8,-70 8,-268 1644,-268 1644,-70 8,-70"/>
</g>
<g id="clust2" class="cluster">
<title>cluster_AppModule_declarations</title>
<polygon fill="none" stroke="#000000" points="1514,-78 1514,-130 1636,-130 1636,-78 1514,-78"/>
</g>
<g id="clust4" class="cluster">
<title>cluster_AppModule_imports</title>
<polygon fill="none" stroke="#000000" points="16,-78 16,-130 1506,-130 1506,-78 16,-78"/>
</g>
<g id="clust6" class="cluster">
<title>cluster_AppModule_bootstrap</title>
<polygon fill="none" stroke="#000000" points="739,-208 739,-260 863,-260 863,-208 739,-208"/>
</g>
<!-- AppComponent -->
<g id="node1" class="node">
<title>AppComponent</title>
<polygon fill="#ffffb3" stroke="#000000" points="1627.9399,-122 1522.0601,-122 1522.0601,-86 1627.9399,-86 1627.9399,-122"/>
<text text-anchor="middle" x="1575" y="-99.8" font-family="Times,serif" font-size="14.00" fill="#000000">AppComponent</text>
</g>
<!-- AppModule -->
<g id="node2" class="node">
<title>AppModule</title>
<polygon fill="#8dd3c7" stroke="#000000" points="842.6571,-187 839.6571,-191 818.6571,-191 815.6571,-187 759.3429,-187 759.3429,-151 842.6571,-151 842.6571,-187"/>
<text text-anchor="middle" x="801" y="-164.8" font-family="Times,serif" font-size="14.00" fill="#000000">AppModule</text>
</g>
<!-- AppComponent&#45;&gt;AppModule -->
<g id="edge1" class="edge">
<title>AppComponent&#45;&gt;AppModule</title>
<path fill="none" stroke="#000000" d="M1575,-122.2479C1575,-145.0179 1575,-181 1575,-181 1575,-181 852.888,-181 852.888,-181"/>
<polygon fill="#000000" stroke="#000000" points="852.8881,-177.5001 842.888,-181 852.888,-184.5001 852.8881,-177.5001"/>
</g>
<!-- AppComponent  -->
<g id="node13" class="node">
<title>AppComponent </title>
<polygon fill="#80b1d3" stroke="#000000" points="855.439,-252 746.561,-252 746.561,-216 855.439,-216 855.439,-252"/>
<text text-anchor="middle" x="801" y="-229.8" font-family="Times,serif" font-size="14.00" fill="#000000">AppComponent </text>
</g>
<!-- AppModule&#45;&gt;AppComponent  -->
<g id="edge12" class="edge">
<title>AppModule&#45;&gt;AppComponent </title>
<path fill="none" stroke="#000000" stroke-dasharray="1,5" d="M801,-187.1061C801,-187.1061 801,-205.991 801,-205.991"/>
<polygon fill="#000000" stroke="#000000" points="797.5001,-205.9909 801,-215.991 804.5001,-205.991 797.5001,-205.9909"/>
</g>
<!-- BrowserModule -->
<g id="node3" class="node">
<title>BrowserModule</title>
<polygon fill="#8dd3c7" stroke="#000000" points="1498.4734,-122 1495.4734,-126 1474.4734,-126 1471.4734,-122 1391.5266,-122 1391.5266,-86 1498.4734,-86 1498.4734,-122"/>
<text text-anchor="middle" x="1445" y="-99.8" font-family="Times,serif" font-size="14.00" fill="#000000">BrowserModule</text>
</g>
<!-- BrowserModule&#45;&gt;AppModule -->
<g id="edge2" class="edge">
<title>BrowserModule&#45;&gt;AppModule</title>
<path fill="none" stroke="#000000" d="M1445,-122.2843C1445,-143.3211 1445,-175 1445,-175 1445,-175 852.7584,-175 852.7584,-175"/>
<polygon fill="#000000" stroke="#000000" points="852.7585,-171.5001 842.7584,-175 852.7584,-178.5001 852.7585,-171.5001"/>
</g>
<!-- BrowserAnimationsModule -->
<g id="node4" class="node">
<title>BrowserAnimationsModule</title>
<polygon fill="#8dd3c7" stroke="#000000" points="1373.3019,-122 1370.3019,-126 1349.3019,-126 1346.3019,-122 1200.6981,-122 1200.6981,-86 1373.3019,-86 1373.3019,-122"/>
<text text-anchor="middle" x="1287" y="-99.8" font-family="Times,serif" font-size="14.00" fill="#000000">BrowserAnimationsModule</text>
</g>
<!-- BrowserAnimationsModule&#45;&gt;AppModule -->
<g id="edge3" class="edge">
<title>BrowserAnimationsModule&#45;&gt;AppModule</title>
<path fill="none" stroke="#000000" d="M1287,-122.1061C1287,-141.3391 1287,-169 1287,-169 1287,-169 852.8567,-169 852.8567,-169"/>
<polygon fill="#000000" stroke="#000000" points="852.8568,-165.5001 842.8567,-169 852.8567,-172.5001 852.8568,-165.5001"/>
</g>
<!-- HttpModule -->
<g id="node5" class="node">
<title>HttpModule</title>
<polygon fill="#8dd3c7" stroke="#000000" points="1183.4387,-122 1180.4387,-126 1159.4387,-126 1156.4387,-122 1098.5613,-122 1098.5613,-86 1183.4387,-86 1183.4387,-122"/>
<text text-anchor="middle" x="1141" y="-99.8" font-family="Times,serif" font-size="14.00" fill="#000000">HttpModule</text>
</g>
<!-- HttpModule&#45;&gt;AppModule -->
<g id="edge4" class="edge">
<title>HttpModule&#45;&gt;AppModule</title>
<path fill="none" stroke="#000000" d="M1141,-122.0225C1141,-139.3734 1141,-163 1141,-163 1141,-163 852.6907,-163 852.6907,-163"/>
<polygon fill="#000000" stroke="#000000" points="852.6907,-159.5001 842.6907,-163 852.6906,-166.5001 852.6907,-159.5001"/>
</g>
<!-- RouterModule.forRoot(args) -->
<g id="node6" class="node">
<title>RouterModule.forRoot(args)</title>
<polygon fill="#8dd3c7" stroke="#000000" points="1080.8419,-122 1077.8419,-126 1056.8419,-126 1053.8419,-122 903.1581,-122 903.1581,-86 1080.8419,-86 1080.8419,-122"/>
<text text-anchor="middle" x="992" y="-99.8" font-family="Times,serif" font-size="14.00" fill="#000000">RouterModule.forRoot(args)</text>
</g>
<!-- RouterModule.forRoot(args)&#45;&gt;AppModule -->
<g id="edge5" class="edge">
<title>RouterModule.forRoot(args)&#45;&gt;AppModule</title>
<path fill="none" stroke="#000000" d="M992,-122.2396C992,-137.5706 992,-157 992,-157 992,-157 852.9158,-157 852.9158,-157"/>
<polygon fill="#000000" stroke="#000000" points="852.9158,-153.5001 842.9158,-157 852.9157,-160.5001 852.9158,-153.5001"/>
</g>
<!-- StoreModule.forRoot(args) -->
<g id="node7" class="node">
<title>StoreModule.forRoot(args)</title>
<polygon fill="#8dd3c7" stroke="#000000" points="885.2877,-122 882.2877,-126 861.2877,-126 858.2877,-122 716.7123,-122 716.7123,-86 885.2877,-86 885.2877,-122"/>
<text text-anchor="middle" x="801" y="-99.8" font-family="Times,serif" font-size="14.00" fill="#000000">StoreModule.forRoot(args)</text>
</g>
<!-- StoreModule.forRoot(args)&#45;&gt;AppModule -->
<g id="edge6" class="edge">
<title>StoreModule.forRoot(args)&#45;&gt;AppModule</title>
<path fill="none" stroke="#000000" d="M801,-122.1061C801,-122.1061 801,-140.991 801,-140.991"/>
<polygon fill="#000000" stroke="#000000" points="797.5001,-140.9909 801,-150.991 804.5001,-140.991 797.5001,-140.9909"/>
</g>
<!-- StoreDevtoolsModule.instrument() -->
<g id="node8" class="node">
<title>StoreDevtoolsModule.instrument()</title>
<polygon fill="#8dd3c7" stroke="#000000" points="698.3489,-122 695.3489,-126 674.3489,-126 671.3489,-122 485.6511,-122 485.6511,-86 698.3489,-86 698.3489,-122"/>
<text text-anchor="middle" x="592" y="-99.8" font-family="Times,serif" font-size="14.00" fill="#000000">StoreDevtoolsModule.instrument()</text>
</g>
<!-- StoreDevtoolsModule.instrument()&#45;&gt;AppModule -->
<g id="edge7" class="edge">
<title>StoreDevtoolsModule.instrument()&#45;&gt;AppModule</title>
<path fill="none" stroke="#000000" d="M592,-122.2396C592,-137.5706 592,-157 592,-157 592,-157 749.208,-157 749.208,-157"/>
<polygon fill="#000000" stroke="#000000" points="749.2081,-160.5001 759.208,-157 749.208,-153.5001 749.2081,-160.5001"/>
</g>
<!-- CategoryModule -->
<g id="node9" class="node">
<title>CategoryModule</title>
<polygon fill="#8dd3c7" stroke="#000000" points="467.3669,-122 464.3669,-126 443.3669,-126 440.3669,-122 356.6331,-122 356.6331,-86 467.3669,-86 467.3669,-122"/>
<text text-anchor="middle" x="412" y="-99.8" font-family="Times,serif" font-size="14.00" fill="#000000">CategoryModule</text>
</g>
<!-- CategoryModule&#45;&gt;AppModule -->
<g id="edge8" class="edge">
<title>CategoryModule&#45;&gt;AppModule</title>
<path fill="none" stroke="#000000" d="M412,-122.0225C412,-139.3734 412,-163 412,-163 412,-163 749.0006,-163 749.0006,-163"/>
<polygon fill="#000000" stroke="#000000" points="749.0006,-166.5001 759.0006,-163 749.0006,-159.5001 749.0006,-166.5001"/>
</g>
<!-- CoreModule -->
<g id="node10" class="node">
<title>CoreModule</title>
<polygon fill="#8dd3c7" stroke="#000000" points="338.2619,-122 335.2619,-126 314.2619,-126 311.2619,-122 251.7381,-122 251.7381,-86 338.2619,-86 338.2619,-122"/>
<text text-anchor="middle" x="295" y="-99.8" font-family="Times,serif" font-size="14.00" fill="#000000">CoreModule</text>
</g>
<!-- CoreModule&#45;&gt;AppModule -->
<g id="edge9" class="edge">
<title>CoreModule&#45;&gt;AppModule</title>
<path fill="none" stroke="#000000" d="M295,-122.1061C295,-141.3391 295,-169 295,-169 295,-169 749.1614,-169 749.1614,-169"/>
<polygon fill="#000000" stroke="#000000" points="749.1614,-172.5001 759.1614,-169 749.1614,-165.5001 749.1614,-172.5001"/>
</g>
<!-- HomeModule -->
<g id="node11" class="node">
<title>HomeModule</title>
<polygon fill="#8dd3c7" stroke="#000000" points="233.7619,-122 230.7619,-126 209.7619,-126 206.7619,-122 140.2381,-122 140.2381,-86 233.7619,-86 233.7619,-122"/>
<text text-anchor="middle" x="187" y="-99.8" font-family="Times,serif" font-size="14.00" fill="#000000">HomeModule</text>
</g>
<!-- HomeModule&#45;&gt;AppModule -->
<g id="edge10" class="edge">
<title>HomeModule&#45;&gt;AppModule</title>
<path fill="none" stroke="#000000" d="M187,-122.2843C187,-143.3211 187,-175 187,-175 187,-175 749.28,-175 749.28,-175"/>
<polygon fill="#000000" stroke="#000000" points="749.28,-178.5001 759.28,-175 749.28,-171.5001 749.28,-178.5001"/>
</g>
<!-- SharedModule -->
<g id="node12" class="node">
<title>SharedModule</title>
<polygon fill="#8dd3c7" stroke="#000000" points="122.4231,-122 119.4231,-126 98.4231,-126 95.4231,-122 23.5769,-122 23.5769,-86 122.4231,-86 122.4231,-122"/>
<text text-anchor="middle" x="73" y="-99.8" font-family="Times,serif" font-size="14.00" fill="#000000">SharedModule</text>
</g>
<!-- SharedModule&#45;&gt;AppModule -->
<g id="edge11" class="edge">
<title>SharedModule&#45;&gt;AppModule</title>
<path fill="none" stroke="#000000" d="M73,-122.2479C73,-145.0179 73,-181 73,-181 73,-181 749.2448,-181 749.2448,-181"/>
<polygon fill="#000000" stroke="#000000" points="749.2448,-184.5001 759.2448,-181 749.2448,-177.5001 749.2448,-184.5001"/>
</g>
</g>
</svg>
